<svg xmlns="http://www.w3.org/2000/svg" viewBox="0 0 1253.66 1159.68"><defs><style>.cls-1{fill:#ffd200;}</style></defs><g id="Calque_2" data-name="Calque 2"><g id="Calque_1-2" data-name="Calque 1"><path class="cls-1" d="M528.06.56a83.55,83.55,0,0,0-8.3,3.5c-4,1.9-6.6,2.6-8.4,2.2a11.75,11.75,0,0,0-5.8.4c-2.7.9-4.2.7-8.4-1-6.2-2.4-7.1-2.5-7.1-.5s-5.9,2-8.6,0c-2.5-1.9-3.9-1.9-5.8,0-.8.9-3.6,1.9-6.1,2.4s-5.2,1.4-5.8,2c-1.3,1.3-5.7,1.5-5.7.2,0-.5-3.1-1.5-6.9-2.1-6.3-1.2-9.1-1.1-22.8.7-2.8.3-4.3.1-4.3-.6,0-1.8-1.8-1.3-4.4,1.4-2.3,2.2-3.3,2.5-10.4,2.5-14,0-26.6,3.7-33.2,9.6-4,3.6-5.6,4.2-6.2,2.2-.3-.9-1.2-.8-3.1.5a11.43,11.43,0,0,1-5.1,1.7c-1.4,0-4.4,1.6-7,3.9-5.2,4.5-8.7,5.8-16.9,6.4-5,.4-6.2.1-8.5-1.8s-2.9-2.1-5.6-1c-1.9.7-7.8,1.1-14.7,1.1-11.1-.1-11.7-.2-15.2-2.9-2.6-1.9-3.7-3.6-3.7-5.4,0-2.4-.1-2.5-4.6-1.8a39.7,39.7,0,0,0-5.8,1.1c-.7.3-2.9,4.5-5,9.5a80.51,80.51,0,0,1-8.2,14.8c-4.2,5.5-4.9,6.1-16.7,11.1-10.5,4.4-13.4,6.2-19,11.4-5.5,5-6.7,6.7-6.7,9.2,0,2-1.3,4.8-3.7,8-3.2,4.2-3.9,5.9-4.4,11.9-.5,5.3-.4,7.4.7,8.6a5.15,5.15,0,0,1,1.4,3c0,1.8-12.4,13.9-20.3,20-3.2,2.4-7.4,5.6-9.2,7-2.6,2-5.3,2.8-12.5,3.7-8.8,1.1-15.7,3.7-15.3,5.8a2.66,2.66,0,0,1-.7,1.9,37.24,37.24,0,0,0-2.5,7.2c-2,7-2.5,7.6-10.4,11.8-5,2.7-5.9,3.7-9,10a54.44,54.44,0,0,0-4.1,12.9c-.7,6.3-.1,5.5-11.9,15.4-2.8,2.4-5.6,5.3-6.2,6.5l-1.2,2.2,2.4-2,2.3-2-2.3,3.5c-2.1,3.3-3.8,6.8-7.9,16.3-.9,2.2-2.6,4.3-3.8,4.8a8,8,0,0,0-3.7,3.6c-1.8,3.5-4.2,18.7-3.3,21,.6,1.5,1,1.3,3-1.2l2.3-2.9,2.2,4.2c2.1,4.1,4.1,5.5,4.1,2.9.1-.6.9.4,2,2.3,2.4,4.4,2.7,11.2.5,10.4-.9-.4-1.8.1-2.2,1.2s-.2,1.9.5,2.2.8,1,0,2.8c-1,2-.8,2.8,1.1,4.7,2.7,3,3.6,6.2,4.5,15.8.7,7.2.6,8.1-2.9,17a56.72,56.72,0,0,0-4.1,15.8c-.5,7.7-3.3,13.1-9.9,18.9-4.9,4.3-5.4,5.2-2.9,5.2,2.3,0,8.4,6.4,8.4,8.9,0,1.3.6,2.1,1.7,2.1,1.3,0,1.4.3.5,1.2-1.7,1.7-1.5,3.1.2,2.5,1-.4,1.3-.1,1,.8s.7,2.2,2.8,3.5c2.5,1.5,2.8,2,1.4,2a6.4,6.4,0,0,1-3.7-1.6c-1.6-1.4-1.8-1.4-2.8.4-.6,1.1-.8,2.2-.4,2.6s.5,3.7.4,7.6c-.2,6.3,0,7.3,2.1,9a10.74,10.74,0,0,0,3.3,2c.6,0,1.1,1,1.2,2.1a6.21,6.21,0,0,0,1.3,3.3c1.2,1.2,7.8,1.3,10.4.1,1.5-.6,1.7-.5,1.1.4-.9,1.6,1.1,3,4.5,3.2,2.1.1,2.2.2.5.6a12.62,12.62,0,0,0-3.3,1.5c-1.4,1.2-1.6,3.2-.2,2.3.6-.3,1,.1,1,1,0,1.8,2.3,4.5,3.9,4.5.5,0,1.3.9,1.6,2,.8,2.5,2.4,2.6,4.1.2,1.2-1.5,1.3-1.4,1.4,1.1q0,2.85,1.2,2.1c.7-.4.8-.3.4.4s.1,2.3,1,3.7c1.8,2.8,10,8.9,13.3,10,1.6.5,2.1,1.3,1.8,2.5s.5,2.7,1.8,4a11.09,11.09,0,0,1,2.9,4.6c.4,1.3,1.1,2.4,1.7,2.4s.5.8-.2,2.2c-1,1.8-.8,2.4.7,3.6,1.8,1.3,1.7,1.4-.9.8l-2.9-.7,1.8,3a11.15,11.15,0,0,0,4.1,4c1.3.6,2.3,1.7,2.1,2.5s.8,2.4,2.1,3.5c2.3,2,2.3,2.1.3,2.1-3.4,0-3.5,1.8,0,2.5,5.7,1.3,20.7,9,22.6,11.7a17.65,17.65,0,0,0,5.3,3.8c2.1,1.1,3.9,2.5,3.9,3.1s2.1,1.9,4.6,2.9c2.6,1.2,8,5.3,12.8,9.9,6.7,6.4,10,8.7,18.2,12.6,5.4,2.6,11.1,5.3,12.7,6.1,2.5,1.4,3.3,1.3,11.5-1.7,4.8-1.7,9.2-3.5,9.8-4,2.7-2.2,10.9-4.1,22.9-5.5,13-1.5,30.5-1.6,30.5-.2,0,.5,1.9.8,4.3.8a33.08,33.08,0,0,1,8.2,1.6c7.1,2.7,7.6,2.7,10.5.6a34.08,34.08,0,0,1,8.8-3.7,86.22,86.22,0,0,0,14.4-5.5c4.6-2.2,10-4.3,12.1-4.7s3.7-.9,3.7-1.4c0-1.1-3-3.9-4.2-3.9-.6,0-.9-.3-.6-.6,1-1,4.6,1.5,5.3,3.6.8,2.6,4,1.9,7.2-1.6,3.1-3.3,13.1-5.5,25.7-5.5,7.4,0,10.7-.4,12.4-1.5,1.3-.9,2.6-1.3,3-1s0,.6-.6.6-1.2.3-1.2.7,2.6.8,5.8.9c7.3,0,13.9,3.5,16.7,8.8,1.1,2,2.6,3.6,3.3,3.6s1,.5.7,1.1.2,1.3,1.4,1.6c1.8.5,1.9.8.9,2.1s-1,1.6,0,1.9a3,3,0,0,1,1.2,2.4c0,4.4,5.2,11,9.7,12.3,1.2.4,2.4.3,2.7-.3s1.5-.7,2.6-.4a17.76,17.76,0,0,0,5.6-.1c2.9-.6,3.3-1,2.4-2.2-1.5-1.7.1-1.9,1.8-.2.9.9,1.5.9,2.4,0,1.7-1.7,3.9-1.5,3.2.3-.4.8-.1,1.5.5,1.5a2.06,2.06,0,0,0,1.7-1.3c.3-1,2.7-1.5,7.2-1.6,3.7-.1,6.9-.6,7-1.2.6-1.5,2.2-1,2.2.6,0,1,1,1.5,2.8,1.5,2.1,0,3.1.8,4.2,3.2,1.9,4.1,7.4,7.5,9.4,5.9,1-.8,1.6-.9,2.1-.1.3.5.1,1-.4,1-1.9,0-1.2,2.6,2,7l3.1,4.2-1.5,7.3a43.29,43.29,0,0,0-1,9.9c.4,1.7-.4,4.2-2.3,7.3-4.2,6.9-4.6,8.3-2.9,8.9a3.53,3.53,0,0,1,1.5,3c0,1.7-.7,2.5-2.5,3l-2.6.6,2.2,3.7c1.1,2,1.5,3,.8,2.3-2.2-2.1-2.6-1.4-2.5,4.3,0,5-.3,5.9-3,8.4-2.2,2-3.5,2.6-4.5,2a5.34,5.34,0,0,0-2.2-.9c-.9,0,1.8,6.5,4.1,10,1.6,2.4,1.8,2.9,2.1,5,0,.5,1.1,1,2.3,1,1.7,0,1.9.3,1,1.2-1.9,1.9-1.5,2.7,2.1,4.3,1.8.8,2.2,1.2.9.9l-2.3-.6,2.7,4.2c2.2,3.3,3.3,4.1,5.1,3.7,1.2-.2,2-.1,1.8.4s.3,1,1.2,1.2.6.3-1,.2c-3.9-.2-3,1.3,3.7,6.3a81.58,81.58,0,0,1,11,11,117,117,0,0,0,9.1,10.2,30,30,0,0,1,5.4,7c1,1.9,2.7,5.2,3.9,7.3a14.5,14.5,0,0,1,2,6.5c-.1,1.5,2.4,8.2,5.5,14.9s6.1,13.9,6.6,16a62.64,62.64,0,0,0,4.1,9.7c3.9,7.7,3.9,10.9,0,13.3-1.6.9-3,2.4-3,3.1,0,2.3,8.2,22.3,10.8,26.6,2.4,3.8,2.4,4.3,1.5,13.6-1.1,11.2-3,14.8-9.4,18-2.3,1.2-3.9,2.8-3.9,3.8s-1.6,3.3-3.5,5.2c-2.4,2.3-3.5,4.3-3.5,6.3a11.88,11.88,0,0,1-1.2,5,30.14,30.14,0,0,0-1.9,7.2c-1.1,8.2-4.7,19-7.3,21.8-2.1,2.3-2.3,2.9-1.4,8.2.5,3.2.7,6.3.4,6.9s-.5.3-.5-.7-.6-1.7-1.2-1.7-.8.7-.3,1.7.9,6.1,1,11.3c.1,7.9.6,10.4,2.7,15a34.88,34.88,0,0,0,5.8,8.5,36.05,36.05,0,0,1,5.4,7.5c1.3,2.5,3.9,7.1,5.9,10.4a66.55,66.55,0,0,1,5.2,10.9,61,61,0,0,0,6,11.5c2.4,3.5,4.4,6.9,4.4,7.6s1.2,2.3,2.6,3.7a28.84,28.84,0,0,1,4.4,5.4c2.1,3.4,3.8,11.1,2.3,10.2-.6-.4-.8,3.6-.5,10.6.4,9.1.9,12.1,2.8,15.8,1.4,2.8,2.6,7.9,3.3,13.5,1.3,11.7,2.1,15.5,3.7,18,.8,1.1,1.1,2.3.8,2.7-.9.9,3,10.5,6.8,17,2.7,4.6,11.4,13.5,14.5,14.9,2.2.9,6.6,8.5,9.9,16.9,4.7,12.1,6.6,15.8,12.6,24.7a111.63,111.63,0,0,1,6.4,10.7c2.9,6.9,1.1,13.5-3.7,13.5-2.7,0-2.4,3,.6,5.9,1.4,1.3,2.5,2.8,2.5,3.3a11.51,11.51,0,0,0,2.1,3.9c1.8,2.6,1.9,3.4.9,6.5a9.31,9.31,0,0,0-.6,4.9c.8,2.2,3.3,1.8,3.9-.5.7-2.7,3.5-2.5,3.9.2.2,1.8,1.1,2.4,3.6,2.6,1.8.2,3.6,1,3.9,1.8,1.2,3.2,13.2,6,14.8,3.4s9.8-4.9,17.6-4.9c7.3,0,8.5-.3,12.1-2.7,3.7-2.6,4.9-2.8,14.2-3.1,17.4-.4,19.7-.3,25.4,1.2,4.9,1.2,5.8,1.2,7.2,0,1.1-1,3.7-1.5,7.3-1.5,5,0,5.6-.2,5.9-2.3s.8-2.2,7.8-2.3c6.6,0,8.4-.5,14.5-3.6,9.8-5,20.6-13,30-22a167.82,167.82,0,0,1,13.3-11.5c5.4-3.9,17.5-19.3,21.1-26.8,2.4-5,6.9-9.6,14.3-14.7,6.5-4.4,8-6.8,9.8-15.3a83.58,83.58,0,0,1,3.2-11c1.1-2.7,1.7-5.7,1.5-6.6s-.2-4.7.2-8.3c.6-5.9.5-6.8-1.2-7.9-1.9-1.2-1.9-1.4-.3-4.5,2.3-4.4,5.5-6.2,20.1-11.1,9-3.1,13.5-5.2,16.5-7.9,5.4-4.6,9.4-13.3,5.4-11.8-1.3.5-1.5,0-.9-3.6a30.82,30.82,0,0,1,2.1-7.2c.9-1.9,1.1-3.2.5-3.6s-.9-3.1-.8-6.2c.2-5.8-1.3-8-2.4-3.6-.3,1.3-.6-.2-.5-3.2a20.18,20.18,0,0,0-2.1-9.5,12.66,12.66,0,0,1-1.6-7.2c.4-2.7,0-3.8-2.6-6.2-2.9-2.7-3.2-3.5-3-8,.2-4.3.6-5.1,2.2-5.1,1.2,0,5-3.1,9.1-7.3,4-4,8.5-7.6,10.3-8.2,2.1-.7,5.6-3.8,10-9,3.8-4.4,8.6-9.2,10.8-10.7,4.6-3.1,17.3-8.5,22.5-9.4a16,16,0,0,0,6-2.9,34.8,34.8,0,0,1,6.8-4.4c2.4-1.2,4.6-3,4.9-3.9.9-2.3,7.6-11.3,10.2-13.6,3.9-3.5,6.7-17.1,3.7-18.2a2,2,0,0,1-.9-2.5c.3-1,.1-1.9-.4-1.9s-.9-4.4-1-9.8c-.2-7.2-.6-9.6-1.5-9.4-.7.2-.4-.6.6-1.7,1.4-1.5,1.6-2.4.8-3.3-.5-.7-1.3-5.6-1.7-10.8-.5-7.4-.3-10.5.9-14,.8-2.5,1.1-4.6.6-4.8s-.6-1-.3-1.8c.7-1.9-2.9-5.7-8.4-9a28,28,0,0,1-4.3-2.7c-.1-3.2-2.3-12.3-3.2-13.4a6,6,0,0,1-1.3-2.7,16.71,16.71,0,0,0-1.5-3.8c-1.1-2.3-1.1-3.7,0-8.1,1.1-4.8,1.1-5.7-.5-8-1.6-2.5-1.6-2.8.4-6a13.92,13.92,0,0,0,2.1-4.7c0-.7-2.4-3.7-5.4-6.7s-5.7-6.5-6-7.8.5-5.2,2.3-9.7a96.24,96.24,0,0,0,3.6-10,5.3,5.3,0,0,1,2.7-3.4c1.3-.4,3.7-4.2,7-11,2.7-5.7,5.4-10.6,5.9-10.9s.9-2.1.9-3.8c0-4.2,2.3-7.4,5.8-8.1,3.3-.8,10-6.7,9.4-8.4-.2-.7.5-1.2,1.5-1.2,2.5,0,5-2.8,9.9-11,4.3-7.2,22.9-27.4,36.2-39.2a93.67,93.67,0,0,1,18.7-13c8.9-4.6,11.4-6.6,23-18.2,15.5-15.6,21.4-22.1,23.8-26.7a137.09,137.09,0,0,1,8.2-12.7c3.5-5,6.7-10.3,7-11.7s.7-3.5,1-4.8,2.3-5,4.5-8.5a80.65,80.65,0,0,0,5.9-10.5,21,21,0,0,1,3.5-5.7c1-.7,3.4-4.6,5.3-8.4s4.3-8,5.4-9.1,2.3-5,3-9.5c.7-4.1,1.9-8.3,2.7-9.3,1.9-2.2,3.3-12.9,1.9-13.9-.7-.4-.4-2.3.7-5.3,1.1-2.8,1.5-5,.9-5.6s-3-1.2-5.7-1.5c-4.4-.6-4.9-.5-7.6,2.4a12.69,12.69,0,0,1-5.7,3.7c-1.5.3-5.3,1.3-8.3,2.2a50.35,50.35,0,0,1-12,1.7c-3.6.1-7.6.7-8.9,1.5-1.7.9-4.2,1.2-8.5.7-5.7-.6-6.2-.4-12.8,3.5L1125,425l-6-1.7-5.9-1.6-5.3,2.9a46.68,46.68,0,0,1-9.8,4.1c-4.1,1-5.3.9-9.1-.8a24.38,24.38,0,0,1-7.9-6.2c-1.9-2.3-4.4-5.4-5.6-6.8-1.9-2.4-2.8-2.7-8.1-2.7-6.5,0-6.4-.4,1.6-4,6-2.8,6.8-4.1,5.3-8.7-1.2-3.5-5.5-8.9-6.8-8.7-2.1.4-3.3-.2-3.3-1.7,0-.9-1.3-2.1-3-2.7a5.16,5.16,0,0,1-3.5-3.8c-.7-3-3.6-5.9-8.3-8.3a18.23,18.23,0,0,1-5.6-5.5c-3.3-5.2-6.7-7.7-11.7-8.5-4.5-.7-9.9-3.2-9.9-4.5a9.51,9.51,0,0,0-1.9-3,16.81,16.81,0,0,1-2.4-3.4c-.7-2.2-2.9.6-2.3,3.2.4,2.3.3,2.2-.9-.6a13,13,0,0,0-2.7-4c-1.8-1.1-3.8-6.6-5.3-14.8-1.4-7.6-2-9.2-7.2-20.3-2-4.3-4-7.2-4.9-7.2s-3.6-2-6.2-4.4-5.7-4.6-6.9-5a6.31,6.31,0,0,1-3.2-3.7c-1.4-4-3.4-23.3-2.8-27.2.2-1.9-.1-3.7-.9-4.5-1.9-1.9-1.8-3.8.1-2.2,3,2.5,2.6.2-.5-3.4a15.44,15.44,0,0,1-3.8-7.8c-.6-3.5-1.7-5.2-6.2-9.4a57.2,57.2,0,0,0-8.7-6.8c-4-2-8.3-9.9-8.3-15.2,0-3.4.2-3.6,2.5-3,1.4.4,2.5.4,2.5.1a39.21,39.21,0,0,0-4.6-4.7,39.93,39.93,0,0,1-7.8-10.8c-1.8-3.6-6-11-9.3-16.5a105.1,105.1,0,0,1-8.3-16.4,44.92,44.92,0,0,0-4.7-9.8c-2.2-2.9-2.4-3.6-1.2-4.4s.4-1.8-3.4-5.4a69.5,69.5,0,0,1-7.2-8.5,20.67,20.67,0,0,0-3.4-4.4,1.78,1.78,0,0,1-.5-2.1c.3-.8-.3-3-1.5-4.8-2.3-3.7-2.7-7.2-1.1-8.2.6-.3,1,.2,1,1.2s2,4.5,4.5,7.8c2.7,3.6,4.5,7,4.5,8.6,0,2,1.7,4.3,6.9,9.1,3.7,3.6,7.7,6.7,8.9,7,2.9.8,5.7-2.6,5.8-7.1.1-3.4,1.1-6.9,5.6-18.9,1.4-3.6,1.7-5.6,1-6.5-.6-.6-3-6.2-5.5-12.4l-4.5-11.2,2.4-2.2c1.3-1.2,2.4-2.6,2.4-3.1,0-1.5-2.7-.8-4.6,1.3-3.7,4.1-7.2,5.2-14.5,4.5-4.3-.5-6.9-.3-7.4.3-.9,1.6-6.1,1.3-7.5-.4a8.52,8.52,0,0,0-3.3-2.1,12.14,12.14,0,0,1-3.6-1.8c-1.4-1.1-6.2-1.6-16.1-1.6-10.7,0-12,.2-12,2.2,0,1.4-.6,1.9-2.3,1.6a10.14,10.14,0,0,0-5.2,1.8c-4.5,3.2-9.2,5.4-11.3,5.4a21.65,21.65,0,0,1-6.3-2,24,24,0,0,0-8.1-2c-2,0-4-.5-4.3-1s-2-1-3.6-1a11.26,11.26,0,0,1-5.2-1.5c-1.3-.8-5.6-1.9-9.6-2.5s-9.2-1.5-11.6-2.1a14,14,0,0,0-8.1,0c-5.5,1.5-6.2,1.4-7-1.2-1.4-4.7-3.3-5.7-10.6-5.7-3.8,0-7.9-.5-9.1-1.2a39.56,39.56,0,0,0-7.2-2.2c-4.4-1-5-1.5-5.3-3.9s-1.1-2.9-8.7-5.3c-9.4-2.9-13.8-2.9-24.6.3-8.8,2.6-14.9,6.1-17.6,10.2s-2.9,8-.3,13.1c2.3,4.6,1.7,7.1-2.6,11.1-4.5,4.2-9.2,6.2-12.8,5.5a33.78,33.78,0,0,1-8.7-4.6c-7.3-5.1-21.2-9.7-32.7-10.9-5.5-.6-10.1-1.6-11.7-2.7-2.9-1.9-5.5-6.3-5.5-9.2,0-3.7-3.7-6.9-8.7-7.7a33.61,33.61,0,0,1-8.3-2.5,35.67,35.67,0,0,0-8.5-2.5c-2.7-.4-5.8-1.1-6.8-1.7-1.2-.6-4.1-.6-8.6.3-6.6,1.1-7.1,1.1-12.4-1.5-6.4-3-9.2-3.3-10.5-.9s-4.2.9-4.2-2.2c0-2.7-3.1-4.8-3.8-2.7-.5,1.6-3.3,1.5-3,0,.2-.7-.8-1.4-2.2-1.6-5.5-.7-9.6-4.4-8.5-7.5.3-.7,2.1-2.1,4-3a28.18,28.18,0,0,0,6-3.9c3.7-3.1,8.7-10.6,7.6-11.2a7.9,7.9,0,0,1-1.4-3.5c-.5-2.2-1.7-3.6-4.7-5.1-3.3-1.7-4-2.5-4-5,0-1.7.4-3,.9-3,2.3,0,7.1-5.4,7.7-8.6.3-1.9.4-3.8,0-4.1s-2.3.5-4.3,1.9c-5.3,3.4-7.3,4.1-7.3,2.2a2.6,2.6,0,0,0-1.6-2.1c-1.1-.4-1.2-.8-.4-1.3,2.1-1.3-.1-3.2-3.1-2.8-1.6.3-2.7,0-2.6-.6C534.66,0,531.26-.44,528.06.56Zm-407.2,380.8a10.28,10.28,0,0,1-3.5,0c-1-.3-.2-.5,1.7-.5S121.76,381.06,120.86,381.36Zm13.2,25.3c0,.5-.9,1-2.1,1s-1.7-.5-1.4-1a2.52,2.52,0,0,1,2.1-1C133.46,405.66,134.06,406.06,134.06,406.66Z"/><path class="cls-1" d="M147.36,131.06c-2.4,2-2.5,2.6-1.4,4,1.8,2.1,2.3,2,5.5-.9C156.66,129.26,152.86,126.36,147.36,131.06Z"/><path class="cls-1" d="M78.46,136.16c-.8,1.9,2.3,6.8,3.9,6.2,1.2-.4,2.8-6.3,1.9-7.2C83.16,134.06,79,134.76,78.46,136.16Z"/><path class="cls-1" d="M141.46,139.86a30.85,30.85,0,0,1-4.2,6l-2.6,2.8h2.8c4.4,0,8.5-2.7,9.4-6.3.5-1.7.7-3.8.4-4.5C146.46,135.46,143.16,136.66,141.46,139.86Z"/><path class="cls-1" d="M104.56,140.06a20.87,20.87,0,0,1-5.2,2.1c-1.8.3-3.3.9-3.3,1.2,0,1.8,4.3,7.1,5.4,6.7,2.1-.8,8.8-9.3,8.1-10.4C108.66,138.26,106.86,138.46,104.56,140.06Z"/><path class="cls-1" d="M90.06,146.16c-1.5,1.8-.5,3.5,2,3.5a3.42,3.42,0,0,0,2.5-1c.7-1.1-1.2-4-2.5-4A4.41,4.41,0,0,0,90.06,146.16Z"/><path class="cls-1" d="M115.26,146.86c-3.3,3.3.6,9.1,4.7,6.9,2.4-1.3,3-3.1,2-5.9C121.06,145.46,117.26,144.86,115.26,146.86Z"/><path class="cls-1" d="M77.16,151.76c-1.9.8-2.1,1.2-1.1,2.4a3.29,3.29,0,0,0,5.7-.4c1-1.6.9-2-.3-2.5a5.74,5.74,0,0,0-1.7-.5C79.66,150.76,78.46,151.26,77.16,151.76Z"/><path class="cls-1" d="M921.06,154.46c0,.5.7,1.3,1.6,1.6s1.4.1,1.2-.6C923.36,154,921.06,153.16,921.06,154.46Z"/><path class="cls-1" d="M1.36,325.26c-1.1.5-1.9,4.4-.9,4.4,1.9,0,6.6-2.5,6.3-3.4C6.36,325.06,3.26,324.46,1.36,325.26Z"/><path class="cls-1" d="M5.36,329.36c-2,.8-1.5,2.3.7,2.3,1.1,0,2-.7,2-1.5C8.06,328.66,7.46,328.46,5.36,329.36Z"/><path class="cls-1" d="M37.66,329.46c-.8,1.3,1,5.2,2.4,5.2s1.2-2.3-.3-4.5C38.76,329,38.16,328.76,37.66,329.46Z"/><path class="cls-1" d="M9.56,331.66c-.3.5-.1,1,.4,1a1.1,1.1,0,0,0,1.1-1c0-.6-.2-1-.4-1S9.86,331.06,9.56,331.66Z"/><path class="cls-1" d="M15.76,333.26c-1.4,1.4.6,3,3.3,2.6,3.6-.5,3.9-1.7.8-2.6C17,332.56,16.56,332.56,15.76,333.26Z"/><path class="cls-1" d="M1018.06,339.46a1.6,1.6,0,0,0,1.1,1.4c.8.3.6,1-.5,2.1-1,.9-1.3,1.7-.7,1.7s.8.7.5,1.5c-.8,1.9,1,1.9,2.6,0a2.72,2.72,0,0,0,.4-2.7,5.43,5.43,0,0,1-.9-2.7C1020.56,339.16,1018.06,338,1018.06,339.46Z"/><path class="cls-1" d="M38.66,341.26c-1.2,3.2,2.1,4.7,4.3,2,1-1.2.8-1.7-.8-2.5C39.56,339.36,39.36,339.36,38.66,341.26Z"/><path class="cls-1" d="M1023.56,345.66c-.8,1.3-.1,2.4,1.4,1.9.6-.3.7-1,.2-1.8C1024.56,344.76,1024.16,344.76,1023.56,345.66Z"/><path class="cls-1" d="M34.06,356.66c0,1.1.5,2,1,2s1-.9,1-2-.4-2-1-2S34.06,355.56,34.06,356.66Z"/><path class="cls-1" d="M25.76,356.36c-2.4,2.3,1.6,7.2,4.9,5.9,1.9-.7,1.8-2.2-.6-4.6C28,355.56,26.86,355.26,25.76,356.36Z"/><path class="cls-1" d="M1062.56,371.66a2,2,0,0,0,1.6,3c1.2,0,1.2-2.7,0-3.5A1.22,1.22,0,0,0,1062.56,371.66Z"/><path class="cls-1" d="M1061.06,377.66a1,1,0,0,0,.9,1,2.14,2.14,0,0,0,1.6-1c.3-.6-.1-1-.9-1S1061.06,377.06,1061.06,377.66Z"/><path class="cls-1" d="M1235.06,394.16c-.9,1-.6,1.9.9,3.4,2.7,2.7,8.2,2.7,14.1,0,4.2-1.9,4.3-2.1,2.5-3.2C1249.56,392.66,1236.46,392.56,1235.06,394.16Z"/><path class="cls-1" d="M1214.06,400.56c0,1,5,2.5,5.8,1.6.8-.7.1-1.1-3-1.9C1215.26,400,1214.06,400.06,1214.06,400.56Z"/><path class="cls-1" d="M1229.06,401.66a1.08,1.08,0,0,0,1,1,1,1,0,0,0,1-1,.94.94,0,0,0-1-1A1,1,0,0,0,1229.06,401.66Z"/><path class="cls-1" d="M111.46,412.86c-.5.8-.2.9.9.5s1.7-.2,1.7.4.6.9,1.4.6a2.62,2.62,0,0,1,2.5.6c.9.9,1.4.8,2.1-.3,1.4-2.1,1.2-3-.5-3-.8,0-1.5.4-1.5,1s-.9.6-2.6,0C112.26,411.46,112.36,411.46,111.46,412.86Z"/><path class="cls-1" d="M122.56,413.66c-.3.5-.2,1,.4,1a2.34,2.34,0,0,0,1.6-1c.3-.6.2-1-.4-1A2,2,0,0,0,122.56,413.66Z"/><path class="cls-1" d="M114.56,416.66c-.3.5-.1,1,.4,1a1.1,1.1,0,0,0,1.1-1c0-.6-.2-1-.4-1S114.86,416.06,114.56,416.66Z"/><path class="cls-1" d="M123.06,416.56c0,.6-.6.8-1.2.6-2-.7-3.9,1-3.2,2.8s2.4,2.3,2.4.7a1,1,0,0,0-1.1-1c-.5,0-.7-.5-.4-1,.5-.8,1.1-.8,2,0s1.6.6,2.4-.4.9-1.6.1-2.1C123.56,415.86,123.06,416,123.06,416.56Z"/><path class="cls-1" d="M114.26,419.86c.5,1.5,2.8,1.8,2.9.3,0-.6-.7-1.2-1.7-1.3C114.46,418.56,114,419,114.26,419.86Z"/><path class="cls-1" d="M517.36,536.36a2.06,2.06,0,0,0-1.3,1.7c0,.8-1,2.6-2.2,4.1-2.1,2.7-2.1,2.8-.3,4.1,3,2.2,4.3,1.7,6.5-2.5C522.66,538.66,521.26,535,517.36,536.36Z"/><path class="cls-1" d="M495.46,571.76a2.09,2.09,0,0,0,.5,2.2c.8.8,1.1.5,1.1-1.1C497.06,570.46,496.56,570.06,495.46,571.76Z"/><path class="cls-1" d="M1013.66,680.36c.1,2.7.5,4.7.8,4.5a6.05,6.05,0,0,1,1.5-.2c1.3,0,2-6.3.9-7.8C1014.66,674.26,1013.46,675.66,1013.66,680.36Z"/><path class="cls-1" d="M1006.46,691.06c-.8,2.1,0,8.1,1,7.8.5-.2,1.3.3,1.8,1.2s1.3,1.6,1.7,1.6c1.7,0,2.1-3.3.8-4.9a12,12,0,0,1-2.1-4.4C1009,689.46,1007.36,688.76,1006.46,691.06Z"/><path class="cls-1" d="M1014.86,723.06c-1.6,1.2-2.8,2.5-2.8,2.9,0,1.4,2.7.7,4.4-1.2C1019.16,721.76,1018,720.56,1014.86,723.06Z"/><path class="cls-1" d="M1123.06,753.66a1.08,1.08,0,0,0,1,1,1,1,0,0,0,1-1,.94.94,0,0,0-1-1A1,1,0,0,0,1123.06,753.66Z"/><path class="cls-1" d="M1070.66,781.26c-1.1,2.8-.6,5.1,1.4,6.9,3.1,2.8,4.5.8,2.9-4.4C1073.76,779.56,1071.76,778.46,1070.66,781.26Z"/><path class="cls-1" d="M1166.36,791.36c-1,3-3.5,5.3-5.6,5.3-1.9,0-1.9.1-.4,1.8a6.82,6.82,0,0,1,1.7,4.3c0,3.6-3.2,9.1-5.7,10-2,.7-2.3.5-2.3-1.6,0-1.4-.5-2.5-1-2.5-1.6,0-2.6,3.3-1.2,3.8s1.6,3.8.3,4.7c-.5.3-1.2-.4-1.6-1.5s-1-2-1.5-2c-1.6,0-4.2,4.8-3.4,6.2a9.7,9.7,0,0,1,1,4c.1,2.1-.3,2.8-1.7,2.8-2.4,0-3.2,1.5-2.1,3.7,1.1,2-1.2,5.1-2.3,3.3s-2.4-1-5.1,3c-1.9,2.8-2.4,4.7-2,6.5.4,1.4.2,2.5-.4,2.5s-1-.8-1-1.8c0-2.8-1-3.3-3.9-1.8-4.2,2.2-7.4,6.2-6.8,8.6.3,1.1.1,1.8-.4,1.4a2.53,2.53,0,0,1-.9-2c0-1.1-.4-1.2-1.9-.4a12.9,12.9,0,0,1-4.5,1c-1.4,0-2.9.6-3.3,1.3-1.1,1.8-5.1,2.8-5.6,1.4-.2-.7-1.5-.3-3.2,1.1a10.55,10.55,0,0,1-6.4,2.2c-4.6,0-6.1,1.4-6.1,6,0,2.4-1.1,5-3.5,8.4-3.5,5-3.5,5-2.9,13,.4,4.7,1.5,9.7,2.5,11.8a17.23,17.23,0,0,1,1.9,6.5,8.89,8.89,0,0,0,1.6,4.8c1,1.4,1.3,3.1.9,5.6-.4,2.1-.2,4,.4,4.3s0,2.1-1.5,4.3c-1.3,2-3.9,6.6-5.7,10.3s-4,7.1-5.1,7.6-3,3.6-4.3,6.9c-3.5,8.4-3,15.1,2,23,3,4.7,3.4,6.2,2.5,7.8-1.7,3.2-.5,12.4,2,15,1.2,1.3,2.2,2.9,2.2,3.6,0,2.1,8,9.1,10.3,9.1,1.2,0,4.3,1.1,6.9,2.5s5.3,2.5,6,2.5,4.5-1.5,8.3-3.3,9.2-3.7,11.9-4c6.9-1,9.1-2.8,11.1-8.9a93.37,93.37,0,0,1,3.6-9c1.1-2.1,3.2-9.3,4.8-16a135.33,135.33,0,0,1,6.1-19.3,91.73,91.73,0,0,0,4.6-13.3,104.32,104.32,0,0,1,3.5-11.5c1.2-2.9,4.8-13,8-22.4,5-14.6,5.9-18.3,5.9-24.2,0-5.7.3-7.2,1.9-8.3,1-.7,2.4-3.2,3.1-5.5,1.1-3.7,1.1-4.6-.4-6.8-.9-1.4-1.4-3-1.1-3.5s0-1.8-.6-2.8c-1.2-2-.7-5.2.9-5.2.5,0,1.6,1.8,2.5,4,1.7,4.3,4.4,6.1,5.8,3.9a47.31,47.31,0,0,0,2.5-6.2c1.6-4.8,1.6-4.8-1.1-8.7-2-2.8-2.6-4.8-2.4-7.7.2-2.1,0-4.4-.4-5a6,6,0,0,1-.2-3.6c.4-1.6-.1-4-1.4-6.5a18.66,18.66,0,0,1-2.1-7.1c0-1.8-1.1-4-3-6.1-1.6-1.8-3-3.8-3-4.5a3.92,3.92,0,0,0-1.9-2.7,6.21,6.21,0,0,1-2.2-3.2C1169.46,789.66,1167.26,789.06,1166.36,791.36Z"/><path class="cls-1" d="M1089.36,791.46c-2.9.4-2.9,1.7-.1,3.6s4.6.6,3.2-2.1A2.76,2.76,0,0,0,1089.36,791.46Z"/><path class="cls-1" d="M1077.06,794.66c0,1.3,2.8,2.5,3.8,1.6.3-.4,0-1.1-.8-1.6C1078.06,793.36,1077.06,793.46,1077.06,794.66Z"/><path class="cls-1" d="M1100.36,803.16c0,1.5.5,2.5,1.3,2.5a1.45,1.45,0,0,0,1.4-1.5,1.44,1.44,0,0,1,1.3-1.5c.8,0,.7-.4-.3-1C1101.56,800.06,1100.36,800.56,1100.36,803.16Z"/><path class="cls-1" d="M1178.66,867.56a5.17,5.17,0,0,0-1.4,3.8c.3,1.4.8,1.1,2.2-1.5C1181.46,865.86,1181.16,864.86,1178.66,867.56Z"/><path class="cls-1" d="M1062.56,871.66c.3.5.8,1,1.1,1s.4-.5.4-1a1,1,0,0,0-1.1-1C1062.46,870.66,1062.26,871.06,1062.56,871.66Z"/><path class="cls-1" d="M945.06,945.66c0,1.1.5,2,1,2s1-.9,1-2-.4-2-1-2S945.06,944.56,945.06,945.66Z"/></g></g></svg>