<svg xmlns="http://www.w3.org/2000/svg" xmlns:xlink="http://www.w3.org/1999/xlink" viewBox="0 0 20.22 10.11"><defs><style>.cls-1{fill:none;}.cls-2{clip-path:url(#clip-path);}.cls-3{clip-path:url(#clip-path-2);}.cls-4{fill:#319400;}.cls-4,.cls-5,.cls-6{fill-rule:evenodd;}.cls-5{fill:#ffd600;}.cls-6{fill:#de2110;}</style><clipPath id="clip-path" transform="translate(4.29 0)"><path id="BJ" class="cls-1" d="M4.61,1.14l-.07.11-.1.22v.17L4.68,2l0,0,.06.06,0,.07,0,.17v.2l0,.14L5,2.87V3l-.08.28,0,0h0l-.12,0-.06,0-.07.1,0,.1v0l.11.18-.07.25-.07.16-.13.09-.12,0-.08,0,0,.06V4.5L4,4.67l-.09.11-.05.07,0,.22-.06.22-.11.17-.24,0-.2,0L3.21,6v.27l0,.29,0,.11v.53l0,.29,0,.08,0,.17v.17l0,.12.06.11v.05l0,0,0,0v.62l0,.06v.21l0,.13,0,.1,0,.08,0,.11,0,.28v.09L2.48,10l-.76.11-.32.07,0-.05L1.65,10l-.06-.21-.16-.25-.07-.05,0-.13,0-.08,0-.06,0-.17-.08-.19H1.4V6.8l0-.48v-.8l-.05-.15-.23-.24L1,5V4.84L1,4.66V4L.92,4,.67,3.79.32,3.55.05,3.37H0l0,0,0-.53L.1,2.71l.08-.22,0-.18h0l.06-.06,0-.08h0l.08,0,0,0V2.1L.54,2,.61,2V1.88l.06,0H.77l.07,0,.06,0L1,1.67l0,0,0,0,0,0,.12,0h.1l.06.08.42-.07.2,0,.41-.35.09-.1L2.6.9l0-.09,0-.17L2.6.32v0L2.78.2,3,.15h.08l.05,0L3.2.05l.12,0L3.4,0h0l.44.41.2.21,0,.11.1.08.14,0L4.51,1Z"/></clipPath><clipPath id="clip-path-2" transform="translate(4.29 0)"><rect class="cls-1" x="-2.93" width="13.48" height="10.11"/></clipPath></defs><g id="Calque_2" data-name="Calque 2"><g id="Calque_1-2" data-name="Calque 1"><g class="cls-2"><g class="cls-3"><path class="cls-4" d="M-4.29,0H2.45V10.11H-4.29Z" transform="translate(4.29 0)"/><path class="cls-5" d="M2.45,0H15.93V5.05H2.45Z" transform="translate(4.29 0)"/><path class="cls-6" d="M2.45,5.05H15.93v5.06H2.45Z" transform="translate(4.29 0)"/></g></g></g></g></svg>