<svg xmlns="http://www.w3.org/2000/svg" viewBox="0 0 12.01 23.49"><defs><style>.cls-1{fill:none;stroke:#000;stroke-miterlimit:10;stroke-width:0.25px;}</style></defs><g id="Calque_2" data-name="Calque 2"><g id="Calque_1-2" data-name="Calque 1"><path id="MG" class="cls-1" d="M10.35.71l.07.17.09.17.27.4.12.16.1.16.05.33.17.52.16.77,0,.8.05.36.13.35.21.36.07.39-.13.42-.19.38,0,.08-.09.1h0l-.15-.1-.12-.16L11,6l-.06-.19-.06,0h-.18l-.13.12,0,.08,0,.22,0,.19,0,.2v.25l0,.08.07.06.07.17,0,.39-.05.19-.12.17V8l.05.09,0,.06-.17.08-.07.06-.09.17-.15.36,0,.18.1.55,0,.39-.19.75L10,11l-.16.43L9.57,12l-.23.71-.2.73L9,13.89l-.17.44-.22.77-.19.78-.29.86-.39,1,0,.13-.09.49-.08.43-.11.43-.22.71,0,.22,0,.21-.22.45-.09.16-.06.18,0,.22-.06.22-.15.4-.24.34-.15.13-.35.18-.17,0H5.22l-.37.1-.39.2-.37.23L4,23.29l-.16.06-.49,0-.15-.05-.49-.38-.19-.06-.36-.05L2,22.8l-.1-.05-.15-.2-.29-.16-.07-.06,0-.11,0-.12L1.24,22l-.05-.26-.1-.19-.27-.32,0-.1,0-.34v-.23l0-.43,0-.19.09-.18,0-.2-.1-.2,0-.21-.08-.19-.28-.34-.06-.17,0-.17-.1-.55v-.58l0-.21.07-.14v-.11l0-.09.06-.07,0-.09.1-.51.14-.11.19-.06L1,15.58l.09-.17L1.19,15l.25-.37.09-.19.19-.29.18-.4L2,13.6l0-.2L2,13l0-.21v-.21L2,12.33l-.24-.39v-.07l0-.29,0-.22-.09-.21L1.51,11l-.11-.37L1.34,10l0-.22,0-.19-.08-.19.06-.32L2,7.89l0-.14,0-.36,0-.2,0-.08.06-.05.12,0,.58,0,.08,0L3,6.86l.2-.19.1-.06.07,0,.05.08.07,0,.23-.09h.19l0-.07L4,6.5l0-.08.06,0,.3,0,.2,0,.25-.08.05,0,.2.27.06,0h.08l.07-.05-.16-.14,0-.08V6.21L5.22,6l.14-.14.33-.23L6,5.4l.09,0,.09,0,.06.3v0h.06l.06,0,0-.12v-.1l-.05-.1,0-.08V5.26l.17-.18.13-.17.07-.2,0-.09.14-.11,0,0,0,.08L7,4.7l0,.09,0,.09,0,.12L7,5l.07,0,.11-.22.13-.2.07-.11.1-.07h.15l.16,0-.25-.21L7.48,4l.29-.51v-.1l.05,0,0-.05-.16-.17,0-.08,0-.13.07-.11.07-.08.09,0L8,2.7l.16.14.11,0,.13-.13.11-.17.17-.12.19-.07.28-.26.19-.56V1.39l0-.2L9.23,1,9.12.78l0-.05.16,0,0,0,.17-.2L9.81.13H9.9L10,.2l0,.11.06.08.18.18.1.14ZM8.4,2.26v.06l-.21,0,0-.21h.1l0-.09h.07l.07.19,0,.09Zm2.6,6-.19.31.06-.26.21-.37.06,0L11,8.22Z"/></g></g></svg>