<svg xmlns="http://www.w3.org/2000/svg" viewBox="0 0 1578.83 350.8"><defs><style>.cls-1{fill:#ffd200;}</style></defs><g id="Calque_2" data-name="Calque 2"><g id="Calque_2-2" data-name="Calque 2"><path id="AO" class="cls-1" d="M781.79,203.57l-.07.08-.5.2-.53.19-.71.76-.35.33-.11.09-.32.18-.23.16v.08l.15.1.16.17v1.25l-.07,1.24-.09.1-.45,0-.59.09-.19.05-.06-.12-.2-.45.11-.43.12-.32-.13-.65-.31-.58-.32-.74-.1-.14.27-.23.41-.52.17-.27.47-.06.17-.19.13-.3,0-.18.53-.14.63-.26.35-.28.36-.17h.23l.15.07.41.49.34.3.12.07Zm49.37,28.51.1.6.1.84.07.61.07.27,0,.14-.08.16-.07.36-.12.32-.08.23.06.41,0,.59-.05.62,0,.61.17,1.07,0,.34-.22.56-.16.43-.1.5,0,.26.39.73,0,.15-.3,0h-8.7v13.82l.28,1.45.5,1.58.19.14.51.29.7.6.39.45.8.78,1.06,1,1,.89.9.79-1.41.28-2,.39-1.36.27-1.65.32-1.09.2-1.37.25h-.22l-.37-.18-.79,0-.93.24-.74.07-.54-.11-.53-.21-.52-.31-.9-.12-1.29.09-1.23-.06-1.19-.21-.85-.08-.51.05-.55-.07-.58-.18-.49-.3-.59-.63-.46-.61-.12-.08-.15-.09-.14,0-1.31,0H787.86l-.86.05-.94.05-.14,0-.22-.07-.15-.13-.51-.34-.45-.26-.6-.44-.39-.48-.33-.15-.58-.09-.43-.08-.36,0-.62.22-.47.23-.34.21-.58.25-.49.25-.86,0-.18,0-.48,0-.45-.21-.46,0-.5.27-.72.11.16-1.79.18-.79v-1l-.1-2.44-.12-.34-.09-.39.45-.3.23-.23.31-.4.22-.57.25-1.24.94-2.87.45-2.79.57-1.32.21-1.49,1.57-1.9.39-1.17.81-.58,1.15-.61.82-1.08.4-.75.45-1.44v-1.51l.29-2-.07-.57-.43-.8-.08-.57-.4-.55-.42-.43-.2-.75-.74-1.19-.2-.79-.36-.57,0-.7-.19-.74-.36-.73-.34-.83v-.26l.22-.32.21-.1-.07.16-.14.19,0,.14,1.39-1.46.08-.29,0-.32v-.39l.06-.46-1.31-2.69-1-2.51-.18-1.26-1.37-1.66-.54-1.08-.31-.76-.23-.28.09-.15.35,0,.79-.18,1.07-.19,1-.44.26-.19.53,0,.53.11.2-.08h1.37l.53,0h1l.61,0,.35.05.94.07,1.18,0,.41,0,1.54,0,1.52,0,1.37,0h2.67l.53.16.47.29.22.28.1.12.15.28.26.23.09.35-.07.47,0,.58.16.67.31.7.48.74.21.58-.06.43.15.46.36.48.26.26.15.19.41.74.75,1.18.57.89.2.11.29,0,.61-.09.61,0,.43.18.18,0L805,219l.65-.11.68-.14.35-.15h.41l1.11.28.21,0h.9l.9-.16.13-1.19v-.24l.22-.44.27-.39,0-.37v-.51l.2-.62.6-.49,1-.23.56,0,.87-.14,1.33-.14.48,0,0,.07-.28.85v.28l.1.28.22.15,1.38,0h1.26l1.46.06,1.08,0,.14,0,.11.06.16.42,0,.83-.24,1.2.09,1.13.43,1.05.05,1.61-.16,1-.19,1.22-.07,1.38.19.57.42.6.64.64.49.81.35,1,.12.63-.09.26v.45l.11.65-.13.42-.34.21-.12.29.18.56,0,.5.14.19.1.14.16,0,.35-.18.43-.33.34-.14.48,0,.67.09,1.18,0,.37-.06,1.1-.46.29,0,.44,0,.61.14.63,0,.3-.14,0-.18.1-.24.16-.09Z"/><path id="BF" class="cls-1" d="M723.52,114.31l-.06.21v.39l-.08.61-.09.73.39.47.47.5.13.2-.13.5.09.29.25.49.42.62.44.63.3.08.28.06.18.11.25.11.25.07.22.14.14.14.19.39.49.26.34.25-.14.13-.42,0-.41-.11,0,.19v.71l.06.6.09.08.41.11,1,.77.87.74.29.19.48.07.54,0,.23-.07.52-.37.28,0h.25l.14.06.25.3.24.46.06.33,0,.18-.08.07-.42.09-.19.07,0,.09.07.23.08.14.47.66.67.88.21.23-.11.26-.35.69-.26.29-1.13,1-.56-.11-1.16.19-.18-.22-.27,0-.34,0-.12.08,0,.1-.12.13-.22.39-.16.1-.21.06h-.25l-.15,0v.19l-.05.17-.17.08-.07.18v.19l-.1.08-.22,0-.13,0-.12.23-.16.16h-.1l-1.17.05-.43.12h-.25v-.11l0-.06-1.48-.36-1-.21-1-.24-.06.22-.15.14h-.23l-.16,0-.1.17-.18.23-.24.1-.24.14-.13.13h-.1l-.24-.29-.31,0-.6.05-.27-.08-.36,0-.86.06-1.38-.11-.23.06-.06.05h-1.36l-1.5,0h-2.36v0h-.35l0,.09-.31,1.15,0,.63.17.39.18.24.21.11,0,.14-.16.18v.18l.2.19,0,.2-.1.21,0,.5.14.8V138l-.14.23.07.41.27.57.05.24-.1.11-.23.15h-.22l-.27-.34-.12-.16-.21-.35-.18-.35-.25-.15-.24-.15-.29-.44-.29-.22-.3.06-.43-.08-.89-.11-.95,0-.39.11-.39.16-1,.36-.39.17-.29.45h-.34l-.33-.14-.21-.2-.45,0-.44-.2-.42-.39-.31-.12-.39-.28-.11-.54-.25-.38-.23-.52-.34-.23-.4-.13-.54,0-.36-.21-.28-.31.07-.26.13-.38v-.36l.09-.59,0-.73-.1-.51.3-.22.35-.19.21-.35.23-.78.09-.68-.07-.25-.11-.2-.1-.29,0-.36.06-.31.27-.29.33-.24.23-.12.62-.12.78-.18.44-.2.33-.21.18-.16.19-.33.3-.25.23-.26,0-.72v-.41l-.17-.23-.09-.19,1.14-.57v-.4l-.16-.44L703,123l-.09-.31.32-.36.28-.28.21-.23.45-.35.47-.1.43.14,1.26.83.21.05.27-.06.33-.22.43-.17.16-.56,0-.82.1-.38.23-.07.72.16H709l.21-.05.15-.15v-.26l0-.24.24-.76.43-.58.87-.71.27-.15.32-.07,1.56.49.25-.12.38-1.22.42-.12.51,0,.33-.11.17-.08.74-.47,1.31-.63.71-.27.13-.11.51-.45.67-.51.42-.11.59,0,.37.08.1.15.13.07.77-.22,1.1.35Z"/><path id="BI" class="cls-1" d="M861,193.44l-.09.12-.41.85-.09.13.05.07.18.16-.11.27,0,.07-.08.25.05.23.1.08.27.11.4.08.48.2.32,0,.07.14v.24l.08.22v.38l-.1.33-.49.16-.25.17-.07.09.06.1,0,.14-.46.33-.47.44-.12.29-.09.35-.14.22-.36.33-.37.64-.18.42-.91,1-.8.5-.24.17-1.42,0-.11-.68-.22-.92-.49-.84,0-.35,0-.68v-.94l0-.51v-.38l.06-.64v-.39l-.33-.44-.4-.48-.22-.23v-.36l.07-.25.16-.28.17,0,.43.11.45.24.24.53.19.08h.33l.85-.07h.21l.39-.13.38-.23.11-.23.09-.53.08-.94h.2l.54.33.11,0,.12,0,.18-.16.23-.14h.17l.62-.15.34.28.21.09Z"/><path id="BJ" class="cls-1" d="M738.83,129.27l-.19.29-.28.62,0,.48.69,1,.08.1.17.16.1.18.08.5,0,.56,0,.38.33.53,0,.21-.23.79,0,.08-.06,0-.36-.07-.15.08-.19.27-.12.27v.11l.32.5-.2.71-.2.45-.37.26-.32,0-.23.13-.13.15,0,.51-.49.47-.26.33-.13.19,0,.6-.17.61-.29.48-.67.1-.56.06-.19,1.22v.77l0,.79-.09.32,0,.45,0,1-.07.81.1.21.05.48V148l.14.34.16.3v.15l-.08.1L735,149v1.15l0,.35,0,.21-.12.19,0,.58.09.37.1.27-.09.23-.09.3-.12.76v.27l-1.9.19-2.13.3-.88.2,0-.15.75-.2-.15-.6-.48-.71-.18-.13-.1-.35.12-.23-.06-.16,0-.47-.24-.53.43,0V145l-.08-1.32,0-1v-1.28l-.16-.4-.64-.67-.18-.35,0-.47-.14-.48v-1.81l-.06-.16-.7-.47-1-.66-.76-.5,0,0-.08-.12.11-1.49.16-.2.24-.61.12-.5h.1l.16-.16.12-.23.13,0,.22,0,.1-.08V132l.07-.19.17-.08.05-.17v-.19l.15,0h.25l.21-.06.16-.1.22-.39.12-.13,0-.1.12-.08.34,0,.27,0,.18.22,1.16-.19.56.11,1.13-1,.26-.29.35-.69.11-.26.11-.48-.22-.87v-.16l.47-.19.58-.14h.23l.15-.08.21-.19.35-.14.2,0,.13,0,1.23,1.16.53.58.15.3.27.21.41.14.37.29Z"/><path id="BW" class="cls-1" d="M837,264.45l-.09.23-.07.35.09.25.18.35.26.3.2.18.24.44.24.55.31.44.92,1,.1.35.13.35.58.68.09.23,0,.46.59,1.38.39.81.33.15,1.06.86.93.69,1.08.47.79.31.39.23.2.21.16.42.08.72,0,.47.85,0,.71,0,.24.1.09.13,0,.31v.46l0,.37-.08.4,0,.47,0,.58.11.22.68.74.29.47.3.72.18.23.14.09.62.08,1.59.3,1,.28.77.28.33.08.15.07.06.07-.1.63,0,.2.09.18.13.15.16.08.59.07.36.38.22.18-1.06.1-.53.31-.31.58-.48.42-.65.26-.69.19-.73.1-.78.49-.83.89-.42.55,0,.23-.18.2-.35.17-.2.2,0,.24-.19.11h-.33l-.23.17-.13.36-.29.21-.46.08-.39.2L846,292l-.25.17h-.18l-.28.27-.45.62-.07.3-.61,2.36-.34.28-.65.49-.53.59-.22.34-.25.16-1.21.29-.44.15-.55.22-.13.21-.14.73-.37,1.06-.31.78-.19.68-.35.85-.29.28-.34.26-.44.13-.61.08-.54,0h-.43l-.58.3-.55,0-.87-.18-.71-.16-.32,0-.62-.55h-.4l-.61-.05-.35-.12-.31-.28-.7-.56-.67-.45-.6-.27-.56-.12-.53.11-.42.12-.16.06-.32.23-.33.44-.27.69-.1.42-.31.9-.4,1.08-.19.31-.22.23-.35.2-1.15.86-.58,1-.36.28-.44.13-.37.09-.2.16-.23.49-.19.17-.22.07-.66-.06-.21-.05-1.74.1-.53-.16-.38-.06-.59.2-.25-.13-.2-.41-.09-.82,0-.69.32-.53.27-.38.26-.5,0-.23,0-.2-.05-.41,0-.42-.37-.92L816,302l-.62-1.36-.19-.37-.39-.58-1.43-1.12-.22-.15V284.71h4.51l0-.18V267l1.17-.06,1.35-.2,2.18-.31,2-.4,1.32-.23,1.58-.28.54,0,.14,0,.22.1.73,1,.45.74.09.32.09,0,.22-.05.24-.12.74-.74.16-.19.47-.36.57-.36.52-.26.52-.21.24.05.29.18.25.12,1.19-.9.53-.2,1.39-.16Z"/><path id="CD" class="cls-1" d="M846.74,159.42l.17.32.23.33.78.55.25.31.2.34.12.26.24.22.34.13.29.16.18.24.26.25.52.34h.25l.29,0,.25.09.27,0,.44-.22.52-.37.4-.23,1,.08.54.18.43.27.33,0,.72-.48.39-.52.37-.11.57.23.46.48.41.69.29.27.4.41.78.89,1,.45.4.21.12.22.08.3,0,.31.12.13.28,0,.23-.05.26.09.18.23.09.18.1.2.26.12,0,.25-.18.3-.18.27-.22.54-.11.55.15.19.15.15.09.15,0,.18,0,.21-.35.77-.18.67v.34l.46.25h.6l.19.15.19.24.17.13h.25l.17.09.07.17.21.19.17.2-.09.26v.2l-.43.56-1,1.08-2.1,2h0l-.71.24-.37.37-.26.59-.61.5-.48.2,0,.12,0,.54,0,.79-.22.36-.32.7-.17.44-.12.09-.15.22-.09.72-.06.24-.23,1.48.07.43-.18.7v.42l-.08.47-.12.41v.65l.08,1.07,0,.14-.17.1-.32.26-.3.18-.23,0-.38.47-.32.45-.24.44-.06.2,0,.56,0,.67-.07.28-.12.17-.53.37-.35.26-.16.13-.09.21.16.5v.36l.12.21.42.17v.36l.22.23.4.48.33.44v.39l-.06.64v.38l0,.51v.94l0,.68,0,.35.49.84.22.92.11.68V203l-.17.78-.18.76,0,.28.09.39.35.87.26.64.12.39.18.44.23.69.06.33-.05.24-.48.86-.05.27.12.67.16.65.23.37.53,1,.41.34.74.51.65.51.25.26.24.3.45.75.28.62.15.56.35.76.34.7.42.87.31.61.14.41-.79.12-1.13.17-1.26.19-1.29.2-1.28.2-1.21.19-1.11.17-.33.09.16.48-.07.51-.22.39L853,223l-.15.19-.36.37-.29.27-.6.44-.38.26v.23l.64,1.08.29.77.11.7v.4l0,.83,0,1,0,.38.17.71,0,.55-.43.61-.12.6-.21.82-.3,1.13-.21.59.11.39.11.26.11.34.23.53.27.31.15.13.88.67.37.32.56.63.41.43.58.1.69.15.38.13.26-.06.09-.15,0-.32,0-.23.07-.18.24-.12.6,0,.26-.16.2,0v5.74l-.09.21-.24.08-.32-.19,0-.19-.08-.34-.14-.18-.2-.06-.33.09-.45.26-.58.22-.24.13-.41,0-.44-.12-.32-.29-.1-.43-.28-.44-.39-.64-.19-.26-.26-.3-.26,0-.3-.08-.18-.44-.16-.55-.11-.22-.17-.27-.25-.17-.55-.22-.76-.3-1-.39-.46,0-.51-.07-.32-.18-.18-.15-.21-.53-.29-.63-.84-.74-.19-.83-.17-.12-.28.07-.23.1-.09.23-.22.74-.13.34-.08.1-.18.11-.3.1-.43.05-.61,0-.75-.11-.41-.08-1.1-.13-.32-.06-.45-.16-.33-.16-1.07-.35-.48,0-.24-.25-.21-.12-.29-.23-.13-.32-.17-.69,0-.37.13-.41-.14-.11H837l-.27.14-.5.08-.9.18-.32.1-.35.08-.27.07-.68.39-.24.05-.4-.15-.19-.21.19-.24.08-.29-.14-.58-.2-.27-.6-.19-.24,0-.09-.32-.17-.3-.34-.06-.17,0-.17.09-.09.24,0,.18-.31.14-.62,0-.62-.13-.43,0-.29,0-1.11.45-.36.06-1.19,0-.67-.1h-.48l-.34.14-.42.34-.35.18-.17,0-.1-.15-.13-.19,0-.5-.17-.56.11-.29.35-.21.12-.42-.11-.65v-.45l.09-.26-.12-.63-.35-1-.5-.81-.63-.64-.42-.6-.2-.57.08-1.38.19-1.22.15-1,0-1.61-.43-1.05-.1-1.13.25-1.2,0-.82-.16-.43-.11-.06-.14,0-1.09,0-1.45-.06h-1.27l-1.37,0-.22-.15-.11-.28v-.28l.28-.85,0-.07-.49,0-1.32.14-.88.14-.55,0-1,.23L811,215l-.19.62v.51l0,.37-.28.39-.21.44v.24l-.13,1.19-.9.16h-.9l-.21,0-1.11-.28h-.41l-.35.15-.68.14L805,219l-.66.35-.17,0-.43-.18-.61,0-.62.08-.28,0-.2-.1-.57-.89-.75-1.18-.41-.74-.15-.19-.26-.26-.36-.48-.15-.46.06-.43-.21-.59-.48-.73-.32-.7-.15-.67,0-.58.08-.47-.09-.35-.27-.23-.14-.29-.1-.12-.22-.27-.48-.3-.53-.15h-2.66l-1.37,0-1.52,0-1.54,0-.42,0-1.17,0-.94-.08-.35,0-.62,0h-1l-.52,0H783l-.2.08-.54-.11-.52,0-.3-.13-.64.09-.32.1-.5.38-.75.2-.28,0-.19-.06-.44-.42-.34-.4-.12-.22.19-.05.6-.09.44,0,.09-.11.07-1.23v-1.25l-.16-.17-.15-.1v-.08l.23-.16.32-.18.11-.09.35-.33.71-.76.53-.19.5-.2.07-.08.06-.15.23,0,.07.07.11.16.19.23.36.27.35.29.18,0,.29-.14.33-.22.49-.16.11-.15.07-.32,0-.34,0-.4.1-.06.17,0,.33.11.15.12h.26l.17-.1.31-.2.4-.08.42-.19.4-.25.19,0,.21.32.18.22,0,.14-.18.27-.2.35.17.44,0,.42v.26l.14.1.09.05.15-.06.29,0,.34.13h.34l.32-.17.6-.63.88-1.12.73-.69.58-.29.39-.33.21-.38.33-.26.7-.2.54-.24.53-.76.71-1.37.2-1.22.12-.74-.07-2.57-.05-.84.11-.46.27-.31.72-.67.49-.55.37-.63.71-1.46.31-.48.14-.21.43-.38.61-.35.77-.29,1.2-1,1-1-.13-1.23.22-1,.52-1.29.17-1.38-.18-1.44.08-1.19.5-1.37.2-.51.07-.84v-1.33l.63-1.82.6-1.09.67-1.21.25-.74.34-1-.05-.8-.06-.9.16-1.25-.06-.74-.24-.64.12-.4.48-.17.6-.64,1.07-1.67,1.16-.81.8-.26.84,0,.55.14.25.27.64.39,1,.52.76.65.42.66.33.36.4.12.66,0,.74.15.77.37.47.14.17-.1.38.06.85.3.67-.17,1,.13,2.32.54.13-.1.05,0,.2-.21.51-1.08.43-.67.2-.25.49-.35.58-.09.56,0,.47.16.42.18h.47l.49-.17.71-.32.76-.21.65-.22,1.07-.4.42-.19.53-.07,1.49.37,1-.24.39.07.84-.26.15-.18.53-.87.57-.26.85.13.49.14,1.6.37,2.08.39.61.06.25,0,.21-.07.69-.49.23-.07h.19Z"/><path id="CF" class="cls-1" d="M826.15,132.85l.32.57.15.21,1.32,1.35.26.32.65,1,.4.67.46,1,0,.52-.06.44-.09,1.25-.12.36-.58.68,0,.3.12.26.18.1.11.12-.07.59.21.23.43.15,1.1.1.57.09.45.12.22,0,.12.21-.19.67.13.42.38.36.38.15.36.09,1.28.22.52.24.7.79.88.72.21.38,0,.34-.26.42,0,.18.4.42.46.42.85.48,1.46.75.67.5.22.38.38.41.52.38.35.29-.24.82.07.27.13.23.31.32.12.42.3.52.36.23.6.09.32.24.66.41.64.36.27.24.17.22.15.25.07.26,0,.55.11.69.34.47.32.35-1.31-.4h-.19l-.23.07-.69.49-.21.07-.25,0-.61-.06-2.08-.39-1.61-.37-.48-.14-.85-.13-.57.26-.53.87-.15.18-.84.26-.39-.07-1,.24-1.49-.37-.53.07-.42.19-1.07.4-.65.22-.76.21-.71.32-.49.17h-.47l-.42-.18-.47-.16-.56,0-.58.09-.49.35-.2.25-.43.67-.51,1.08-.2.21-.05,0-.13.1-2.32-.54-1-.13-.67.17-.85-.3-.38-.06-.17.1-.47-.14-.77-.37-.74-.15-.66,0-.4-.12-.33-.36-.42-.66-.76-.65-1-.52-.64-.39-.25-.27-.55-.14-.84,0-.8.26-1.16.81-1.07,1.67-.6.64-.48.17-.12.4.24.64.06.74-.17,1.25.07.9-.26-.14-.24-.43-.12-.08-.71.19-.36.17-.2.17-.15,0-.22-.24-.18,0-.28,0h-.29l-.18,0-.12,0-.34-.14L802,166l-.21-.11h-.25l-.63.3-.33.09-1,.19-1.08.09h-.41l-.29.13-.18.19-.12.43-.22.73-.08.19v.29l-.06.49,0,.44,0,.29-.31.6-.37.71-.3.62-.31.62-.22-.43-.13-.49,0-.57,0-.15-.09-.17v0l-.11-.43.11-.3-.09-.31-.25-.31-.23-.24-.13-.21-.11-.09-.25,0-.33-.11-.45-.47-.43-.45-.56-.58-.44-.5-.55-.61-.5-.57-.31-.54-.12-.32.15,0h.22l.09-.06v-.15l-.22-.43-.11-.54-.18-.34-.59-.51-.56-.4-.18-.2-.1-.28-.21-1.82-.1-.52-.17-.22-.13-.11-.05-.12,0-.33.08-.29v-.11l.16-.25V156l-.09-.08-.09-.15h-.34l-.18-.25-.15-.3,0-.22.15-.19.17-.16.22-.13.63-.27.18-.13.11-.17.08-.22.37-.87.55-.86.23-.18.23-.57.32-.7.13-.33.1-.32.18-.27.6-.43.46-.75.49,0,.51.12.65.06.51-.15.33-.29.73-.24.85-.27.12-.41.25-.21.29-.19.1,0,0,.13.17.42.36.42.53.46.15,0,.33-.35.82-.21.21-.1.59-.51.7-.32.16,0,.25-.09.71-.33.51,0,.81-.05,1.35-.16,1-.06.5-.06.12-.07.19-.49.15-.13.37-.21.72-.74.47-.62.13-.21,0,0,.09,0,.21-.26-.21-.27-.8-.56v-.07l0-.09,0-.08.3-.23.42-.25.44-.1,1.16,0,1-.05h.23l.77-.13.52-.12.54-.27,1.23,0,1-.68.3-.12.13-.1,0-.11.48-.27.53-.55.43-.5.11-.36,1.15-1.2.41,0,.19-.15.46-.8.14-.15.22,0,.26-.09.22-.24.2-.35V135l-.09-.35v-.17l.11-.16.18-.15.88-.43.22-.21.14-.19.24,0,.27,0,.17-.11.19-.2.61-.26.56-.21.59.08.48.11.4.13Z"/><path id="CG" class="cls-1" d="M806.89,166.82l.05.8-.34,1-.25.74-.67,1.21-.6,1.09-.63,1.82v1.33l-.07.84-.21.51-.49,1.38-.08,1.18.18,1.45-.17,1.37-.52,1.29-.22,1,.13,1.23-1,1-1.2,1-.77.29-.61.35-.43.38-.14.22-.31.47-.71,1.46-.37.64-.49.54-.72.67-.27.31-.11.46.05.84.07,2.57-.12.74-.2,1.22-.71,1.37-.53.76-.54.24-.7.2-.33.26-.21.38-.39.33-.58.29-.73.7-.88,1.11-.6.63-.32.17h-.34l-.34-.13-.29,0-.15.06-.09-.05-.14-.1v-.26l0-.42-.17-.44.2-.35.18-.27,0-.14-.18-.22-.21-.32-.19,0-.4.25-.42.19-.4.08-.31.2-.17.1h-.26l-.15-.11-.33-.12-.17,0-.1.06,0,.4,0,.34-.07.32-.11.15-.49.16-.34.22-.28.14-.18,0-.35-.29-.36-.27-.19-.23-.11-.16-.07-.07-.23,0-.06.15-.11-.07-.35-.3-.41-.49-.15-.07h-.23l-.36.18-.35.27-.63.26-.53.14,0,.18-.12.3-.18.19-.47.06-.17.27-.4.52-.27.23-.07-.1-.17-.12-.33-.41-.33-.5-.09-.23-.09-.13v-.5l-.5-.6-1.24-1.06-.14-.31-1.06-1,.27-.7.21-.32.24-.22,1-.55.15,0,.67.71.22.06.24,0,.28,0,.14-.14,0-.19-.2-.2,0-.22.14-.24.08-.27.21-.31,0-.15-.23-.16-.45-.24-.31-.24-.12-.23.08-.28.25-.24v-.13l-.22-.21-.17-.22-.16-.15-.46-.08.09-.3.17-.45,0-.34-.13-.9v-.17l.13-.08.27.1.28.14.75-.2.26,0,.22.17.3.14,1.73-.38,0-.38.1-.34v-.26L779,192l-.08-.13-.06-.25v-.28l.17-.13.55-.34.17,0,.39.18.36.28.32.59.23.52.35.62.76.25.9.16.49,0,.69-.53.4-.41.12-.22.23.11.26.54.17.21,0,.21-.12.25.12.16.48.11.43-.11.19-.22.32-.29V193l-.17-.16v-.22l.18-.17.17-.46,0-.34.17-.22.32-.15.11-.14.18-.81-.09-.29v-.24l.2-.31,0-.51-.09-.83-.06-.57-.06-.6.16-.78.16-.82,0-.2-.23-.25-.27-.22-.71-.19-.27-.3-.2-.31-.15-.1-.78-.13-.17-.17.07-.51.07-.76,0-.52.13-.42.16-.32.35-.33.18-.39.1-.1.65-.07.23-.16.19-.17.08-.22.22-.38.2-.25,0-.17,0-.23-.2-.47-.23-.39-.15-.14-.28-.91-.27-.21-.52-.12-1-.11-.59.17-.9.31-.68.21-.45.12-.26,0-.12-.14.17-.12.09-.28-.11-.4-.18-.36-.09-.51,0-.64.17-.6.36-.77,0-.32h4.5l.89,0,.43-.2.41.31.2.06.07,0,.16.21.51,0,.08.05,0,.26h.47l.23.06H791l.28-.15.19,0,.36.2.26.16.36-.05.82,0,.64.16.64.44.42.26.38.38.14-.07.14-.1.07,0v-.32l-.22-.56-.08-.47,0-.38.16-.28.28-.17,0-.26v0l.31-.62.3-.62.37-.71.31-.6,0-.29,0-.44.06-.49v-.29l.08-.19.22-.73.12-.43.18-.19.29-.13h.41l1.08-.09,1-.19.33-.09.63-.3h.25l.21.11,1.21.35.34.14.12,0,.18,0h.29l.28-.05.18.05.22.23.15,0,.2-.17.36-.17.71-.19.12.08.24.43Z"/><path id="CI" class="cls-1" d="M697.5,135.13l.28.3.36.21.54,0,.4.13.34.23.23.53.25.37.11.54.39.28.31.13.42.38.44.2.45,0,.21.2.33.14h.34l.29-.45.39-.17,1-.36.39-.16.39-.1.95,0,.89.11.43.09.3-.07.29.22.29.44.24.15.25.15.18.35.21.35.12.16.27.34H710l.23-.14.1-.11,0,.22-.09.37,0,.23.12.09-.07.29-.26.5v.3l.26.09.19.31.1.54.12.18v.11l.18,1.29.24,1.3-.15.17-.2,0-.13.06,0,.13.08.17,0,.16-.25.12-.55.41,0,.16-.14.35-.12.22-.18.4-.29,1.05-.1.87,0,.27-.11.19-.12.27-.6.74-.3.61,0,.27v.26l-.09.19,0,.52.07.43.11.42.43,1.2.22.72.14.59.12.39.12.16.05.15.64.11.12.08.18.76,0,.35-.12.13v.29l0,.36-.09.15h-.36l-.24.14-.32-.06,0-.08-.17,0-.47-.2.07-.66-.22,0-.16.09-.34.79-.16.13-2.37-.4-.52-.33-.62-.08-1.07,0-.89.1-.25.2,2.24-.12.24,0,.11.12-2.83.26-1.08.16-.32,0-.24-.26-1.17,0-.24.09-.15.18.46,0h.73l.2.15-2.28.18-1.59.36-.67.26-2.2.87-1.35.41-.35.15-.61.43-.79.27-.88.5-.54.11-.12-.16v-.85l-.08-1.13,0-.43.07-.41v-.34l.27-.12.07-.14,0-.44.25-.4v-.7l.07-.15.06-.18-.11-.46-.14-.86-.06-.06-.07,0h-.14l-.55-.3-.43-.05-.3-.25,0-.29L687,155l-.1-.34-.15-.38-.42-.24L686,154l-.29.05-.33,0-.37-.13-.26-.14-.25-.29-.23-.22-.18,0-.23-.06-.22-.1-.07-.08.92-.9.31-.44,0-.27v-.27l.1-.28,0-.42-.51-1.54-.13-.48-.14-.14-.08-.05.25-.2.36.05.54.16.12-.16.41-.78V147l0-.2.24-.53.19-.21.1-.22,0-.3-.14-.12-.19,0-.23-.07-.34-.18-.18-.15,0-.71,0-.22.12-.12.19,0,.54,0,.43.08.39,0h.2l.16.21.22.21h.2l.07-.16-.05-.69-.13-.37-.29-.36-.76-.3v-.43l.07-.45.16-.18.57-.29-.1-.15L687,141l-.36-.17.08-.55,0-.49-.3.05-.31,0-.26-.15-.22-.3,0-.82v-.95l0-.42.08-.22.27-.21.29-.27.1-.17h.13l.35-.1.32-.24.3-.48.39-.4.45,0,.14-.07h.15l.19.26.19.19h.13l.1.37.82.16.35.1.3.27h.1l.13-.06.09-.1,0-.1-.12-.24,0-.22.14-.2h.21l.31-.06h.37l.27,0,.11-.2-.1-.55,0-.3,0-.26.1-.1.4.32.38.12h.26l.08-.07-.12-.35,0-.1.1-.07.18,0,.47-.14.05,0,.09.56,0,.18.1.38.12.35v.14l-.1.21-.12.2v.08l.19.14.36.14.38,0,.21-.2.21-.17.15-.15,0-.22.24-.16.68-.2.62,0,.16.07Zm11,24.21-.12.18-.6-.12.14-.15.58.09Z"/><path id="CM" class="cls-1" d="M792.7,148.43l-.46.75-.6.43-.18.27-.1.32-.12.33-.33.7-.23.57-.23.18-.55.86-.37.87-.08.22-.11.17-.18.13-.63.27-.22.13-.17.17L788,155l0,.22.15.3.18.25h.34l.09.15.09.09v1.68l-.16.25V158l-.08.29,0,.33.05.12.13.11.17.23.1.51.21,1.82.1.28.18.21.56.39.59.51.18.34.11.54.22.43v.15l-.09.06h-.22l-.15,0,.12.32.31.54.5.57.55.61.44.5.56.58.43.45.45.47.33.11.25,0,.11.09.13.21.23.24.25.31.09.31-.11.3.11.43v0l.09.17,0,.15,0,.57.13.49.22.43v0l0,.26-.28.17-.16.28,0,.38.08.47.22.56v.32l-.07,0-.14.1-.14.07-.38-.38-.42-.26-.64-.44-.64-.16-.82,0-.36.05-.26-.16-.35-.2-.2,0-.28.15h-.19l-.23-.06h-.47l0-.26-.08-.05-.51,0-.16-.21-.07,0-.2-.06-.41-.31-.43.2-.89,0h-4.5l-.11-.28-.22-.15h-.41l-1.19.05-.92,0-.29,0-.32-.07-.77-.07-.94.06-.21,0h-.76l-1.72-.08-1,0,0,.17-.06.12,0,.3h-6.11l-.5-.2-.15-.14,0-.15,0-.1-.11,0,.09-1.06.21-.89.08-.82.29-.74-.16-.72-.17-.32-.93-1,.43-.39-.56.05-.12-.39-.27-.46.16-.07.16-.25.51.07,0-.12-.43-.39,0-.19.18-.22-.09-.09-.31.23h-.23l-.17-.15-.13,0,.08.29-.18.27-.17.09H765l-.23-.07-.07-.15-.21-.11-.62-.2-.51-.23-.11-.63-.2-.27-.09-.31,0-.35.07-.54-.14-.08-.14,0-.23,0-.2,0-.25-.3-.21-.12.13.55-.15.15-.37,0-.16-.21,0-.15.17-.67h-.07l.14-.35.25-.43.34-.54.38-.69.27-1.21.18-.75.16-.69.28-.62.29-.42.81-.8.61-.61.31-.25.22-.2.38-.24.39-.28.3-.54.24-.5.19-.11.24-.09.75-.54.47-.34.11.17.08.21.09.1.4.07h.54l.32-.06.16-.18.17-.48.1-.1.13,0,.59.34.5.49.48.48.25.17.11.18.21.88.13.22.21.09.38-.06.39-.15.35-.23.35-.29.23-.26.1-.19.05-.72.08-.16.35-.28.59-.48.34-.27,0-.1-.21-.29-.19-.33.19-.33.2-.25.74-.86v-.29l0-.35.59-1,.34-1.3V145l.36-.63.41-.8.82-.13.31-.2.36-.36.23-.33.11-.32.08-.6.15-.7.08-.61.25-.56.4-.28.71-.24.11-.11.1-.37.08-.78,0-.47,0-.2.09-.35.66-.62.29-1,.26-1,.74-1.23.87-1.23.41-.34.34-.15.39,0,.27-.09.94-.61.39-.21.29-.21.07-.19,0-.27-.09-.63.16-.47.09-.73,0-.56,0-.2-.15-.27,0-.06-.28-.35-.47-.21-.64-.06-.35-.13,0-.29,0-.17,0-.19,0-.41-.43-2.16h.82l1,.25.25.2.13.74.36.42.62.34.39.72.15,1.07.35.65.07.1.39.93.1.29,0,.56,0,.37.2.47-.31.8-.09.49,0,.69.17,1.21.29.93.31.76.34.58.56.65.6.59.56.37-.52.22-1,0-.57-.12h-.28l-.27.08-1.07.11-1.08,0-1-.15-.61,0-.47.36-.38.54-.35.42.12.47.27.27.52.57.46.56.24.37.92.82.89.73.18.12.25.13.15.06.49.42.67.68.62,1.08.43,1.09.43,1.06.19.18.29.11,0,.23,0,.33-.09.28Z"/><path id="CV" class="cls-1" d="M608.45,104.72l-.44.1-.19,0-.06-.37-.09-.25,0-.11,1-.49.36.08.25.39-.17.22-.69.48Zm1.28.61-.37.11h-.23l-.33-.17.1-.18.36-.2.25,0,.2.36,0,.13Zm9.06.75-.14.25-.18-.36-.1-.08,0-.51.27-.16h.12v.53l.07.34Zm-5.44.18.19.13.06.11-.27,0-.68-.18-.18.11-.18.39-.34-.6,0-.21L612,106l.48.16.83.11Zm5.31,1.81.37.09.15,0,.24,0,.26.25.05.26-.13.33-.5.27-.29,0-.34-.25.19-.49v-.42Zm-2.39,5.78-.27.43-.6,0-.31-.18-.36-.54v-.42l.12-.36,0-.31,0-.09.19.06,0,.21.55.52.2.1.41.61Zm1.19-.6-.13,0-.19-.21.05-.3,0-.07.17-.31.33,0,.09.24v.47l-.3.14Zm-5.11,1.32-.35.17-.24-.07-.24-.19-.11-.27.09-.23.48-.27.28.09.15.42-.06.35Z"/><path id="DJ" class="cls-1" d="M918.55,130.17l-.39.62-.5.8-.57.89h-.36l-.28-.05-.19-.15-.39-.17h-.44l-.42.15-.71.2-.64.06-.52.11-.43.12-.39-.07-.33-.11-.08-1-.07-1v-.82l.12-.45.11-.17.6-.62.21-.25.7-1,.59-.88.45-.66.13-.13.19-.12.13,0,.87.64.15,0,.29-.2.26-.68.19-.24h.08l.55-.19.5-.21.07.22.76.91.25.45.25.82-.13.46-.2.3-.29.26-1,.65-1.13.42-.72.83-.53-.06.08.31.2,0,.31-.06.62-.24.55-.12h.6l.54.11Z"/><path id="DZ" class="cls-1" d="M761.41,2.3l.09.3,0,.28-.43.27-.28.15-.34.73-.63.49-.1.15V4.8l.43.22.14.22.06.28-.19,1-.12.77-.15,1V8.7l.17.46.16.36,0,.4-.06,1,.19.58.16.53-.37.66-.16.58-.1.83,0,.53-.24.48-.32.46-.35.28-.44.24-.5.32-.4.86-.89.71-.18.24-.08.57,0,.79.15.62.43.92.37,1,.1.51.14.19.52.33.9.45.16.18.45.7.42,1.24.14.82.82.65.76.6.73.53.79.57.12.18.26,1.21.26,1.2.29,1.31.29,1.32.34,1.55.2.87.23,1.06.28,1.24-.45.27-.5.33.37.64.7,1,.43.84.15.36.33,1,.27,1,.07.32.1.76L767,47.54l.2,2.66.26,1.32-.41,1.19-.35,1.14,0,.57.19.88.19.66.26.34,0,1.11-.11.4-.79.57-.88.53-.24.45-.07.49.12.41.6.89.91,1.34,1,1.46.09.37,0,1,.41,1.3.45.57.17.43.32.3.31.22.2,0,1.12-.36,1.91.59,1.81.59.14.12.39.75.65,1.23.48,1,.43.87-2.35,1.51L772.08,76l-2.34,1.5L767.39,79,765,80.48,762.7,82l-2.35,1.49L758,84.94l-1.55,1-1,.87-1.25,1.08L753,89l-.92.84-1.2,1.09-.6.55L749,92.65l-.4.21-1.77.36-1.62.33-1.49.31-1,.2-1,.2-1.44.29-1,.2-1.11.22L738,95h-.35l-.31-.12-.37-.28-.25-.15-.06-.22.15-.3.18-.27.06-.21.13-.16.15-.13V93l-.13-.31-.11-.41v-1.1l-.33-.3-.62-.32-.58-.19-.26-.06-.63-.11-.88-.21-.31-.14-.57-.7-.28-.18-1.31-.12-.44-.12-.36-.17-.31-.22-.17-.39,0-.32-.12-.15-1.45-.77-.37-.26-.19-.24v-.36l0-.44-.06-.39-.06-.19-.67-.46-1.48-1-1.49-1-1.48-1-1.48-1-1.49-1-1.48-1-1.49-1L715.19,76l-1.48-1-1.49-1-1.48-1.06-1.49-1.06-1.48-1.06-1.49-1.06-1.48-1.07-1.49-1.07-1.25-.9-1.39-1-1-.7-1-.7-1.1-.75-.72-.46-.85-.56-.85-.55-.85-.56-.86-.56-.85-.55-.85-.56-.85-.56-.86-.56-.85-.56-.85-.56-.85-.56-.85-.56-.86-.57-.85-.56-.85-.56-.85-.57V47.23l0-.36.08-.15.46-.25.72-.59.27-.25.34-.27,1.21-.78.25-.22,1.17-.91.27-.13.63-.09.27-.17.35-.37.52-.41.34-.2.08,0,.22,0,1.08.13.45.09.55.08.17-.06.14-.13.21-.29,0-.34,0-.3,0-.14.09-.06.24,0,.32,0h.64l.22,0,.74-.06,1-.2.82-.26.66-.2.7-.53.52-.57.53-.84.42-.73.87-.45.71-.28.42-.11.93-.39.79-.58.74-.55.57-.07.71-.09.16-.11.18-.19v-.34l-.21-.25-.26-.12-.19-.14-.18,0-.1-.16.05-.31,0-.28.12-.28,0-.4-.19-.4,0-.29V31.5l.09-.22.26-.15.31-.05.44.07.74-.1,1.92-.69.13-.21.12-.48.14-.42.2-.14.11,0,.63-.12.91-.16.34,0,1,0,.72,0,1.16.06.82,0,.72,0,.91,0,.23-.1v-.3l-.17-.57.1-.36.35-.33.44-.37-.2-.45-.35-.31-.49-.36-.25-.15-.45-.44-.27-.5-.18-1.06-.34-.59-.25-.74.22-1.35-.33-.81,0-.36v-.41l.1-.73-.06-1-.39-1.06.18-.35.09-.19,0-.16-.35-.34-.15-.27.08-.26.18-.38,0-.16-.56-.46-1-.75L712.6,13l-.13-.41.92.11.47,0,1.09-.5.86-.66.67-.34.59-.74.53-.46.78-.5,2.22-1.08h.34l.74.25.63-.08.44-.38.47-.91.73-.55.92-.56,1.25-.54.82-.49,1.29-.43,3.25-.27,1.67-.24,1.14.06,1.15-.79.57-.25,2.48-.06,1.17-.58h4.44l.54.19.54.31.9.74.46.17.58-.16,1.36-.7L750,2.71l.84-.42.35-.61.72-.22.41.47,1.59.47,1-.14.43-.14-.15-.7,1,.19.8.33.83.68.54.14,1-.31Z"/><path id="EG" class="cls-1" d="M877.54,33.09l.07.16.14.44.38,1.13.33.88.4,1.22.13.47,0,.33.59,1.33.34,1.1.26.89.36,1.29.15.46-.25.23-.51.84-.54,2.66-.77,2.06-.09,1.29-.13.47-.36.65-.45.64-.79-.33-1.3-1.12-.75-1.07-.81-.69-.76-.92-.21-.66v-.43l-.33-1-.25-.5-.93-1.1-.26-.59-.21-.26-.2-.38-.34-1.44-.37-.92-.42.26.08.38-.37.54-.22.61.17.51.76.77.15.33.18.73,0,1,.12.34.57.73.21.43.12.38.19.33.56.64.82,1.2.77.81.55.39.24.39,0,1,0,.48.49.91.18.45.47.38.22.42.2.69.3,2,.41.5,1.26,2.66,1.07,1.68.52,1.25.79,1.52,1.55,3.31.91,1,.37.58.67.44.72.63-.69-.06-.17,0-.25.11-.11.38,0,.32.08,1.66.19.85.61,1.6.45.48.22.31.3.22,1.44.55.84,1.15L889.47,80l.18.4v.09H865l.15-.44.09-.3-.1-.22-.29,0-.19.07-.44.91-.24,0H835.76V44.32l0-.22-.25-.79-.23-1L835,41.06l0-.41-.42-1.28,0-.37.11-.26.68-1.08.21-.53.17-.64.06-.51-.2-.8-.24-.71-.08-.73,0-.72.35-.49.42-.46.16-.28.25-.32.17-.15.34.64.71.11,2.32-.57,2.55.58,1.41.22,2.18.49,1.32.88.36.11,1,0,.62.52,2.48.25,1.32.57.75.45.46.14.39,0,.54-.17.68-.32.74-.45,1.53-1.14.55-.2.35,0,.43,0,.18-.31.23-.21.14-.24.23-.29.8-.08,1.6-.5-.18.23-1.46.56.63.07.63-.19.73-.12.13-.24.1-.44.14-.07.5.09,1.5.68.37,0,1.06-.38.22-.08.34.21.78.86-.27,0-.83-.74-.08.37-.47.64.59.28.48.11.26.35.17.32.47-.14.34-.43-.17-.24-.12-.25h.15l.33.21,1,.82.32.17.37,0,.77-.23.21,0,1-.31.12.23.17.22.83-.25h1.31l1.07-.26,1.24-.66Z"/><path id="EH" class="cls-1" d="M683.18,54.07v6.55H668.07V72.69l0,.54-.27.16-.65.28-.67.3-.84.13-.28.1-.54.38-.71.51-.61.44-.41.57-.14.32-.06.33,0,.31.22.63.06.32,0,.55,0,.6,0,.65.05.65,0,.69,0,.69,0,.69,0,.51,0,.64h-17.9l-.19.91-.16.65-.1.53.07.45L645,86l.41-2.53,0-.21.33-2.33.63-1.27.49-.56.77-.29.71-1.28.24-1.18.47-.55.14-.42-.18-.33.44-.64.53-1,.24-.63.62-1,.08-.22-.06-.24-.24.2-.26.36-.31.29.13-.35.24-.51.55-.54.87-.6,1.8-2,.68-.35L655,67l.22-.75.06-1.75.21-.92.4-.72.48-1.31.36-.59.23-1.2.26-.46.46-.21.65-.6,1-.38,1.17-.78.54-.46.36-.7.39-1.39.7-1.47.36-1.11,19.75,0h.62v1.89Z"/><path id="ER" class="cls-1" d="M918,124.58l-.5.21-.56.19h-.07l-.19.24-.26.68-.29.2-.15,0-.87-.64-.13,0-.19.12-.13.13-.41-.48-.29-.42-.41-.51-.4-.23-.43-.29-.42-.67-.43-.73-.63-.6L910,120.9l-1.09-1.1-.83-1.15-.54-.6-.23-.16-1.11-.37-.77-.53-.6-.44-.37-.11-.35,0-.76.09-.63-.27h-.27l-.42-.08-.33-.1-.39.12-.8.19-.32,0-.18-.27-.11-.21-.27-.22h-.23l-.13.2-.83.49-1.4.27-.33,0-.25-.2-.7-.84-.2-.14h-.16l-.33-.1-.3-.16-.27-.34-.27-.2-.29.68-.51,1.17-.27.63-.35.81-.11,0-.18,0-.69-1-.44-.38-.33,0-.24.19-.15.34-.16.2-.17.09-.38,0-.59-.17-.6,0-.62.23h-.08l-.15-1.35-.09-.9-.11-1-.09-.9.43-.56.2-.52.51-1.71.21-.34.4-.92.06-.27.39-1.16,0-.77-.08-.78.21-.46.2-.37v-.31l.08-.73.07-.18h.23l.49.09.36-.07h.42l.32,0,.19-.23.26-.85.16-.17.14-.05.36-.16.32-.25.25-.17.1,0,.27,0,.27-.11.12-.12.34-.09.33,0,.23-.1.15-.07h.17l.16-.1.06-.15.1-.09.26-.22.12-.17,0-.16.06-.13.11-.21.46-.55.39-.32,1.37,2.75.55,1.62.5,1.69.36,2.53.34,1.28.56.64.39,1.19.32,0,.24.32.41,1.13.29.41L903,113v-.21l-.12-.35L903,112l.22-.27.52.37.29.27.07.55.12.31.55.64.45.19.6,0,.5.14.4.24.74.65,1.71.58,1.38,1.76.81,1.21,2.66,1.85.46.88.24.86.56,0,1,.94.28.72.79.26.13-.42.38.34.16.55Zm-13.78-15.77.16.45-.45-.17-.07-.1.19-.18,0-.11.12.11Zm.3,1.81.18.25.13,0,.11-.08.07-.18.72.35,0,.23h-.43l-.49-.1-.46,0-.55-.1-.12-.4.35.19.17,0,0-.05-.25-.26-.34-.06,0-.2.16-.09.09-.1-.2-.29.39.07.25.17.16.2,0,.47Z"/><path id="ET" class="cls-1" d="M896.73,116.57l.33,0,1.39-.27.84-.49.12-.2h.23l.28.22.1.21.18.27.33,0,.8-.19.39-.12.33.1.42.08h.26l.63.27.76-.09.36,0,.36.12.6.43.77.53,1.12.37.22.16.54.6.83,1.15,1.09,1.1,1.19.87.64.6.43.73.42.67.42.29.4.23.41.5.3.43.4.48-.45.66-.59.88-.7,1-.21.25-.6.62-.11.17-.12.45v.82l.07,1,.08,1,.33.11.39.07.43-.12.52-.11.64-.06.71-.2.42-.15h.44l.39.17.19.15.28.05h.36l-.08.19-.2.26-.24.26-.21.27-.47.77v.09l.06.16.25.34.26.57.15.51.12.25.32.29.46.59.25.4.51.21.17.5.38.74.41.59.4.46.45.18.18,0,.93.85.71.65.18.11,1.28.43,1.48.49,1.19.39,1.51.5L929,144l1.39.47,2,.67,1.58.53,1.25.42.27.13H940l-1.12,1.09-1.26,1.23-1.33,1.29-.86.83L934.08,152l-1.13,1.1-1.16,1.19-1,1.08-1.37,1.5-.88,1-1.39,1.52-.87.95-.13.05-1.25-.07-1.21-.07-1.54-.09h-.18l-.45.08-.28.09-1.11.26-.21.06-.92.41-1,.48-.49.37-.39.54-.16.38-.18.17-.29.14-2,.37-.57,0-.93.29-.49.49-.14.24h-.67l-1.16.08-.49.07-.24,0h-.45l-.36-.08-.25-.13-.3-.3-.67-.6-.49-.38-1.07.43-1,.43-1.37.62-.78.43-.23.44-.61.8-.53.5-.2.06-1.22-.11-.44-.1-.73-.09-1-.17-.65-.19-.71,0-1-.06-.63-.14-.64-.44-.82-.54-.85-.55L892,164l-1-.66-1.13-.71-.26-.07h-.11l-1.23,0-1.27,0-.86,0-.27-.08-.2-.17-.27-.52-.33-.38-.38-.48,0-.64.11-.71.09-.23,0-.24v-.32l-.21-.29L883.3,158l-.2,0-.21.13-.24.09-.17-.09-.11-.12v-.21l0-.16-.07-.08-.4-.32-.38-.42-.22-.46-.22-.38-.11-.85-.28-.52-.27-.64-.4-1.22-.18-.42-.32-.29-.35-.26-.35-.54-.93-.48-.36-.37-.62-.64-.15-.33,0-.32-.19-.3-.34-.35-1.07-.73-.3-.09-.38-.08-.56-.07-.76-.17-.66-.29-.29-.21-.08-.14.07-.24.24-.4.45-1,.31-.66.21-.19.58,0h.62l.45.05h.64l.76-.06.3-.22.24-.24.1-.17,0-.43v-.35l-.05-1.32,0-.82,0-.92v-.43l.19-1,.17-.57.12-.3.48-1,.09-.3,0-.28-.18-1.27.31-.6.4-.6.34-.25.29-.18.14.08.33.27.44.27.2-.06.3-.23.22-.25,0-.45.2-.92,0-.54.21-.65.23-.93.11-.59.13-.32.64-.65.54-.92.35-.67.67-1.1.33-.4.28-.17.4-.11.76-.1.54-.09.08-.15.05-.22v-.49l.1-.85.24-.82.28-.63.15-.29.18-.27.2-.47.25-1v-.69l.36-1.25h.08l.62-.23.61,0,.58.16.38,0,.18-.08.16-.21.15-.34.24-.18.33,0,.43.38.7,1,.18.06.11,0,.35-.81.27-.62.51-1.18.29-.67.27.19.26.34.31.17.33.09.15,0,.21.13.7.84Z"/><path id="GA" class="cls-1" d="M782.79,172.79l0,.32-.36.77-.17.6,0,.64.09.51.18.36.11.4-.09.28-.17.12.12.14.26,0,.45-.12.68-.21.9-.31.59-.17,1,.11.52.12.27.21.28.91.15.14.23.39.2.47,0,.23,0,.17-.2.25-.22.38-.08.22-.19.17-.23.16-.65.07-.1.1-.18.39-.35.33-.15.32-.14.42,0,.52-.07.76-.07.51.17.17.78.13.15.1.2.31.27.3.71.19.27.22.23.25,0,.2-.16.82-.16.78.06.6.06.57.09.83,0,.51-.2.31V190l.09.29-.18.81-.11.14-.32.15-.17.22,0,.34-.17.46-.18.17v.22l.17.16v.24l-.32.29-.19.22-.43.11-.48-.11-.12-.16.12-.25,0-.21-.17-.21-.26-.54-.23-.11-.12.22-.4.41-.69.53-.49,0-.9-.16-.76-.25-.35-.62-.23-.52-.32-.59-.36-.28-.39-.18h-.17l-.55.33-.17.13v.28l.06.26.08.12.07.17v.26l-.1.34,0,.38-1.73.38-.3-.14-.22-.17-.26,0-.75.2-.28-.14-.27-.1-.13.08v.17l.13.9,0,.34-.17.45-.09.3.46.08.16.15.17.22.22.21v.13l-.25.24-.08.28.12.23.31.24.45.24.23.16,0,.15-.21.31-.08.27-.14.24,0,.22.2.2,0,.19-.14.14-.28,0-.24,0-.22-.06-.67-.71-.15,0-1,.55-.24.22-.21.33-.27.69-.44-.4-.39-.75-.44-.46-1-.74-.25-.54-1.07-1.2-1.55-1.2-1.12-1-.17-.23.19,0,1.08.52.15-.06.12-.12-.47-.27-.44-.22-.42-.13h-.42l-.23-.22L766,193l-.08-.29-.19-.3-.59-.62-.14-.23-.33-.33.2,0,.64.31.05-.13-.05-.18-.64-.29-.35,0-.08-.21,0-.24-.46-.9-.47-.67-.08-.32,1.28,1.46.17,0h.23l.53-.17-.1-.2-.24-.2-.23.09-.3,0-.16-.09-.07-.15.3-.71-.13,0-.1.12-.16.07-.26,0-.63-.38-.56-1-.14-.21-.15-.36-.15-.15-.64-1.46.25.11.29.42.56-.09.23-.24h.19l.2-.06.25-.23.72-1,.19-1.32-.06-.79-.1-.78.24-.25.09.17.05.27.11.21.26.18.48.05.74.29.27.19L767,182l.86-.32-.26-.11-.76.13-1.05-.47-.34-.3-.33-.57-.33-.29,0-.27.75-.24.2,0,.08.29.2.12.08,0,0-.25v-.67l-.22-1,.06-.19.21-.06.18-.13.13,0,.25,0,.13.22.07.13.26.05.21.12.18,0,.15-.14.22,0h5.92v-5.29l0-.3.06-.12,0-.17,1,0,1.72.08h.76l.21,0,.94-.06.77.07.32.07.29,0,.92,0,1.19-.05h.41l.22.15Z"/><path id="GH" class="cls-1" d="M722.22,132l.29.27.07.16-.11.6-.21.42-.14.39,0,.2.13.19.44.31.23.2.27.3.3.3.53.38.22.07v.11l-.07.15,0,1.43,0,.37,0,.19,0,.53,0,.08h-.1l-.09,0,0,.11,0,.11.32.07L724,139l-.24.08-.11.16.05.18-.13.15,0,.1.08.07.14,0,.37-.24.15,0,.19.05.36.38V140l-.14.63-.14.48,0,.65.15.36,0,.2-.16.18-.37.25,0,.17.17.32.3.35.61.44.31.57v.23l-.18.23-.22.2-.07.29.1,1.91-.48.83v.24l0,.27.13.17.24,0,.2.16-.07.58-.1.59,0,.29-.06.14-.19.11-.07.19.05.23,0,.17.1.22.21.27.35.68.14.06.06.14,0,.14.13.3.39.3.41.27.33,0,.08.24.21.3.16.13.25.09.2,0,0,.26-.38.17-.25.26-.19.4-.26.44-.91.22h-.35l-1.87,0-1.75.86-1,.3-.62.49-.83.34-.58.42-1.21.2-2,.65-.62.27-.63.45-1,.54h-.4l-.8-.5-.6-.25-1.47-.38-1.1-.15-.53-.17-.14,0,.12-.18.31,0,.32.06.24-.14.36,0,.09-.14,0-.36v-.29l.12-.13,0-.35-.18-.76-.12-.09-.64-.1-.05-.16-.12-.16-.12-.39-.14-.58-.22-.73-.43-1.19-.11-.43-.07-.43,0-.51.09-.19V152l0-.27.3-.6.59-.75.13-.27.11-.19,0-.27.1-.87.29-1.05.18-.4.12-.21.14-.35,0-.17.55-.41.25-.11,0-.17-.08-.17,0-.12.13-.06.2-.05.15-.17L711,144l-.19-1.3v-.11l-.11-.18-.11-.54-.19-.31-.26-.09v-.3l.26-.5.07-.29-.12-.09,0-.23.09-.37,0-.22-.05-.24-.27-.57-.07-.41.14-.23v-.52l-.14-.8,0-.5.1-.21,0-.2-.2-.19v-.18l.16-.18,0-.14-.21-.11-.18-.24-.17-.39,0-.62.31-1.15,0-.1h.35v.05l1.1,0h2.76l1.36,0,.06-.05.23-.06,1.38.12.86-.06.36,0,.27.08.6-.05.31,0,.24.29h.1l.13-.12.24-.14.24-.11.18-.23.1-.17.16,0H721l.15-.15.06-.22Z"/><path id="GI" class="cls-1" d="M698.36,6.67l0,.08V7h0l0-.07V6.77l0,0,0-.06Z"/><path id="GM" class="cls-1" d="M646.55,122.93l0-.4-.26-.89.34-.39L647,121l.25.19.07.37.19.25.65.15.64-.11.39,0v-.2l.13-.27.78-.12.83-.07.85-.17h.66l.2,0-.05-.07-.6-.08-1.27.18-1.29.06-1,.49-.4,0-.41-.49-.15-.6,1.15,0,1.39,0,1.52,0h.72l.37-.66.71-.29.73-.1.38,0,.41.1.77.54.48.13.4.12.29.26.46.26.36.07.22,0,.36-.1.23-.08.77,0,.57.3.11.33-.09.34-.76.18-1,.28-.87-.16-1.06-.38-.62-.28-.25-.11-.39-.17-.34-.19-.32-.13-.25-.07-.18.1-.1.23-.14.26-.19.15-.89.09-.8.1-.42.08-.29.06-.09.79h-2.7l-1,0-.25.16Z"/><path id="GN" class="cls-1" d="M670.91,126l-.13.12-.13.27-.13.34-.12.22,0,.15.36.29.49.41.2,0,.24-.09.36-.33.29-.35.27-.17H673l.26.25.31.54.29.5,0,.05.11.08h.15l.15-.12.11-.08.14-.22.56-.69.42-.19.15,0,.29-.1.49.16.71.28.86.34.3.06.18-.06.26-.46.32-.18.45-.22.38-.11h.21l.08-.13,0-.19,0-.19-.23-.36v-.1l.14-.07.29,0,.38,0,.43.15.35.22.21.26.21.56.17.54.43.86v1.15l.19.12.21,0,.1.09.21.48.2.13.23,0,.45.3.29.12,0,.09v.13l-.11.16-.18.11-.25.2-.22.28-.44.65v.12l.09.09h.18l.2,0,.4-.24.32.08.3.19.12.18,0,.25-.06.32,0,.36.11.6.16.61.15.22,1,.54.1.19,0,.23-.07.31-.11.17-.29.27-.27.2-.08.23,0,.42v1l0,.82.22.3.26.15.31,0,.3,0v.49l-.08.55.35.17.18.17.1.15-.56.3-.17.17-.07.46v.42l.76.3.29.36.13.37.05.69-.07.16h-.19l-.22-.22-.17-.21h-.2l-.38,0-.44-.08-.54,0-.19,0-.12.13,0,.22-.06.7.18.16.35.17.22.08.19,0,.15.11,0,.3-.1.23-.19.2-.24.54,0,.2v.28l-.41.78-.12.16-.54-.16-.36-.05-.25.2-.16-.13-.19-.18-.07-.23-.13,0h-.24l-.22.13-.09.24,0,.29,0,.21-.13.14-.27.34-.12.31-.16.28-.22,0-.1,0-.07.08-.35.15-.29,0-.08-.16-.17-.12-.2-.25-.21-.21-.42-.14L680,149l-.2,0-.13-.08,0-.12.21-.31.13-.28.07-.31v-.3l-.12-.41-.19-.33,0-.19,0-.27,0-.26-.07-.13,0-.25-.06-.23-.11-.08-.07-.39,0-.39-.16-.15-.25-.11-.15-.15-.1-.17-.09-.05h-.08l-.07.1-.08,0-.15-.37-.06,0-.11.09-1.17.41-.06-.16-.09-.19-.23-.07-.39.15h-.23l-.34,0-.16.06-.46.55-.28.21-.21,0-.22,0-.16,0-.11-.06,0-.13.11-.17.22-.59.57-.6v-.13l-.23-.34-.25-.48v-.51l0-.37-.51-.1-.09-.06v-.13l.13-.33.15-.3,0-.13,0-.12-.31-.32-.48-.6-.45-.67-.38-.57-.31-.26-.3-.38-.11-.24-.31-.09h-2.88l-.06.32-1,.22-.62-.25-.68.14-.33.17-.1.34-.16.38-.14.16-.06.17-.09.15-.13.18-.15.35-.32.51-.34.33-.58.18-.18.53-.14.2-.22.15-.24.11-.22-.06-.25-.05-.27.1,0-.13.15-.43-.12-.22-.45-.44-.05-.21-.14-.27-.6-.57-.55,0,.15-.48v-.63l-.2-.34.05-.35-.1,0-.19.24-.3-.08-.61-.37-.3-.36,0-.31-.07-.12-.18.06h-.38l-1.17-.55-.83-1.38v-.32l.11-.54,0-.14-.38.35-.07-.24-.3-.55-.08-.32-.28-.15-.22,0-.17.11-.23.65h-.17l-.18-.14,0-.48.2-.24.25-.37.75-1.54.26-.35.17-.13h.36l.69-.21.56-.34.28-.13.65,0,.77-.06,1-.33,0-.45v-.58l0-.23-.36-.21-.21-.18-.17-.23-.22-.16v-.17l.27-.15.17-.08h.41l.13-.09.1-.15.12-.37,0-.4-.27-.53v-.37l1.47.05.15,0,.66.07h.4l.25,0,.11.08,0,.16-.07.21.08.21.23.06.11-.07.12-.1.13-.08.2,0,.41.32.38.08.42.18.39.09h.35l.26.18.49,0,.63-.22.5-.1.7,0,.36.08,1.06-.18.53,0Z"/><path id="GO" class="cls-1" d="M936.94,235.33h0l-.07,0v-.08h.08Z"/><path id="GQ" class="cls-1" d="M762.13,165.56h.79l.18.24,0,.35-.7,1-.13.43L762,168l-.23,0-.81-.22-.13-.13,0-.17.08-.42.06-.12.39-.08.12-.06.21-.45.06-.4.18-.31.27-.09Zm11.75,7.2v5.29H768l-.22,0-.15.13-.19,0-.21-.12-.25-.06-.07-.12-.13-.22-.25,0-.13,0-.18.12-.21.07,0-.1-.4-.28-.3,0-.27-.09.22-.71.28-.63.4-.47.22-.12.07-.23.32-.78.4-.63-.12-.63.09-1.07.12,0,0,.1,0,.15.15.13.5.21h6.11Z"/><path id="GW" class="cls-1" d="M660.3,124.74v.37l.27.53,0,.4-.12.37-.1.15-.13.09h-.41l-.17.08-.27.14V127l.22.16.17.23.21.18.36.21,0,.23v.58l0,.45-1,.33-.77.06-.65,0-.28.13-.56.34-.69.21H656l-.17.13-.26.35-.75,1.54-.25.37-.2.24-.23-.33.18-.6h-.19l-.38.49-.19,0,0-.58-.21,0-.24,0-.35-.3,0-.23,0-.31.21-.2,0-.09-.2,0-.23.05-.14-.09.23-.41.8-.35.4,0,.42-.08-.23-.3-.49-.11-.39.08-.19.21-.25,0-.4-.5v-.26l.15-.29.23-.14h.93l.35-.17.14,0,.14-.15,0-.1H654l-.35.2-1.12-.07-.35.12-.63.46-.76.25-.56-.1.18-.62-.08-.08-.17-.11-.82.2-.61-.28-.25-.34.05-.43.29-.28,0-.15-.31,0-.56.18-1.25-.69.25,0,.62.07.47-.08.34-.15.46-.2.44-.07,1.38.09,1.2-.24.89-.46.82-.42h6.65Zm-10.23,3.67-.23.56-.29-.06-.21-.34,0-.14.59,0,.16,0Zm2,1.59,0,.11-.25-.09.37-.39.25-.07v.3l-.19.06L652,130Zm-1.58.33-.22.15-.22-.07-.11-.13v-.23l.25-.33.23,0,.06.57Zm.8,1.16v.19l-.19,0-.06,0,.11-.35.17-.15.21,0,.06,0,0,.13-.09.11-.17.09Zm-1.77.72-.36.07-.16-.23,0-.09.19-.08h.09l.14-.17.18-.11.08,0h.09l.07.37-.09.16-.2.11Zm1-.11,0,.13-.26,0,.06-.13-.06,0,.07-.39,0-.06.13.15,0,.06,0,.3Z"/><path id="JU" class="cls-1" d="M916.34,261h-.08l-.08-.07.07,0,.1.06Z"/><path id="KE" class="cls-1" d="M912.38,164.56l-.56.8-.67,1-1.23,1.76L909,169l-.7.7-.07.12v6.51l0,3.81v6.37l.63.8.6.78.81,1,.43.56.07.18,0,.37-.67.78-.54.35-.72.17-.22,0-.29-.11-.11.19-.08.29-.17-.06-.12-.09.08.52.07.25-.11.34-.36.3,0,.26-.76.66-1.09.08-.57.33-.26.27-.19.59.07.91-.3.7-.06.35-.56.45-.25.42-.19.42-.16.18-.19.95-.26.58-.07.19-.06.17-.21.34-.13.23-.09.16-.67,1.47-.51.67-.41-.08-.27.26,0,.12-.14-.06-.34-.25-.69-.5-.7-.5-.7-.5-.69-.51-.7-.5-.69-.5-.7-.5-.7-.5-.41-.3-.17-.17-.15-.35-.06-.08-.19-.11-.22,0-.06-.07v-.17l.07-.24.26-.46,0-.27-.05-.31-.08-.49-.07-.11-.46-.26-1-.54-1-.54-1-.54-1-.53-1-.54-1-.54-1-.54-1-.54-1-.54-1-.54-1-.54-1-.54-1-.53-1-.54-1-.54-1-.54-.36-.2-.33-.18h-.35v-.77l.11-2v-1.72l.09-.87.43-.54.2-.4.14-.56.22-.45.51-.37.09-.2.53-.62.33-.79.24-.27.3-.25.21-.13.36-.13.27-.07,0-.07,0-.12-.1-.49.12-.17.19-.32.21-.31.2-.19.11-.2,0-.35v-.64l-.06-.91-.23-.76-.14-.85.11-.28-.18-.5-.09,0-.15-.11-.18-.47-.14-.43-.09-.11-.61-.37-.3-.89-.34-.2-.18-.88,0-.25.19-.87,0-.21-.2-.18-.57-.19-.46-.36.06-.13,0-.13-.24-.09-.71-1.5.91-.9.92-.92,1.18-1.15,1.08-1.07.93-.92.84-.82,0,.16V158l.1.12.17.09.24-.09.21-.13.2,0,1.25.34.21.3V159l0,.23-.09.24-.11.7,0,.65.37.48.34.37.26.53.2.16.27.09.86,0,1.28,0,1.22,0h.11l.26.07,1.13.71,1,.65.87.57.85.55.83.54.63.44.64.13,1,.07.71,0,.66.19,1,.17.73.09.44.1,1.22.1.2-.06.54-.49.6-.8.24-.44.77-.44,1.37-.61,1-.43,1.07-.43.49.37.67.61.3.29.24.13.36.09H910l.5-.08,1.16-.07.68,0Zm-4,27.79-.16,0,.08-.26.5-.34.2.08,0,.07V192l-.08.07-.57.27Z"/><path id="KI" class="cls-1" d="M1576,195.1l.15.09.11.11.06.17v0h-.09l-.1-.05-.08-.06,0,0,0,0h.09l.11.07.08,0v-.08l-.1-.14,0,0-.07,0-.08,0-.06,0h0l0,0,0,0,0,0,.1,0Zm2.78,1.67,0,0,0,0,0-.05,0,0,0,0,0,.07Zm-.67,6-.05,0h0l0,0v-.05l0,0h.06l0,0v.05Zm-4.45.21,0,0h.12l0,0h-.12l-.06-.07.07-.06h.06v0h0l0,0v0Zm-10.42.75,0,.06v0h0l-.08,0,0,0,.06,0h0l-.06-.06,0,0,0,0v0h0l.08.07ZM.32,164.81l.36.38-.07.19-.26,0-.12-.06.2,0,0-.07-.1-.11L.25,165H.16l0,.15L0,165l.08-.12.1-.08.14,0Zm1506.21,3.6-.28.15-.09,0,.34-.21v0l0,.06Zm-.56.35-.34.18-.09-.1h.12l.23-.17h.27l0,.09ZM9.37,174.18l.75.52-.32,0L9,174.49,8.29,174l.22-.11.1.18.33.18.19-.37.13-.08-.57-.38.23,0,.54.26-.09.51Zm1497.39,0,0,.11-.26-.29-.15-.18v-.08l.07.05.08.09.06.07.17.23Zm0,.58-.17,0,.12-.06,0-.09,0-.28.06,0,0,.11,0,.17-.07.11Zm0,1.7-.12,0,.08-.09.52-.11,0,0,.08.06v.05l0,0h-.26l-.2,0-.11,0Zm0,1.49.24.18,0,.12-.08.14-.32.36-.1,0,.31-.33.12-.21-.18-.17-.07,0h0l-.06-.16h.06l.14.06Zm6.69,8.22-.15.12,0-.11.07-.14-.12-.57-.21-.08-.12-.17h.06l.2.15.17.07.09.38.06.35Zm-22.47.32h0l-.09,0v-.06l.06,0,.08,0Zm23.67,1.53,0,.23-.11,0,0-.09,0-.23-.1-.23.12.06.1.18,0,.11Zm-1494.53,13v0l-.06,0L20,201l-.09-.08v0l.12,0,.17,0,0,0,0,.07Zm-4.11,7-.11,0h-.12l-.06-.06V208H16l0,0v0Zm18.5,26.63,0,.07-.07,0,0-.09,0-.1,0-.08h0l.05.1,0,.13Z"/><path id="KM" class="cls-1" d="M919.55,236.83l-.09.07-.41-.27-.24-.06-.35-.43.14-1.48.11-.19.08-.07.2,0,.23.19-.06.95.31.64.2.5-.12.18Zm4.58.84.22.64v.48l-.09.15-.21-.1-.37-.38-.71-.37.32,0,.19,0,.21,0,.12-.21,0-.13.18-.1.11,0Zm-3.12,1,.32.29-.89-.12-.14-.26v-.19l.33,0,.38.24Z"/><path id="LR" class="cls-1" d="M684.07,148.27l.09,0,.13.14.13.48.51,1.54,0,.42-.1.28v.27l0,.27-.31.44-.92.9.07.08.22.1.22,0,.18,0,.23.22.25.28.26.15.38.13h.33L686,154l.4.06.42.23.15.39.1.33.14.17,0,.3.29.25.43,0,.56.3.14,0,.06,0,.07.05.14.87.1.46,0,.18-.08.15v.69l-.25.4,0,.44-.07.15-.27.12v.34l-.08.41,0,.43.07,1.13v.84l.13.16-.53-.07-1.53-.64-1.18-.37-4-2.11-1.1-.85-1.27-1.26L676,155l-.65-.41-.81-.2-.5-.22-.35-.23-.29-.71-.71-.42-1.3-.59-1-1,.24-.2.35-.66.49-.62.46-.38.37-.38.39-.3.55-.34.85-.9.19-.11.14-.63.21-.79.25-.25.57-.15.14-.14.2-.56.13-.66V144h.23l.39-.15.23.07.09.19.06.15,1.17-.4.11-.09.06,0,.15.36.08,0,.07-.1.08,0,.09.06.1.17.15.15.25.11.16.15,0,.39.07.39.11.08.06.23,0,.25.07.13,0,.26,0,.27,0,.19.19.33.12.41v.3l-.07.31-.13.28-.21.31,0,.12.13.08.2,0,.16-.07.42.14.21.2.2.26.17.12.08.16.29,0,.35-.15.07-.08.1,0,.22,0,.16-.28.12-.31.27-.34.13-.14,0-.21,0-.29.09-.24.22-.14h.24l.13,0,.07.23.19.18Z"/><path id="LS" class="cls-1" d="M852.79,325.63l-.41.13h-.06l-.26,0-.35,0-.27.07-.22,0-.34.37-.64,1-.16.21-.05.39-.15.32-.18.24-.17.06-.53-.1-.67-.12-.4-.31-.34-.4-.19-.29-.19-.16-.07-.09-.27-.13-.1-.07-.1-.05-.11-.19-.06-.17,0-.46-.19-.28-.33-.47-.21-.39-.28-.53-.18-.45-.18-.47,0-.2.18-.14.5-.23.4-.18.28-.34.31-.49.15-.3.15-.14.16-.21.29-.46.32-.52.34-.55.43-.16.58-.19.57-.48.67-.41,1.08-.44.51-.11.19-.07.12.09.13.25.19.21.43.37.18.09.44.54.47.38.55.43.37.21.19.06.15.39.16.28.09.27,0,.26-.17.63-.25.65-.2.27-.25.18-.24.25-.09.53-.11.61-.31.25-.24.17-.34.21Z"/><path id="LY" class="cls-1" d="M836.53,31.32l-.17.15-.25.32-.16.28-.42.46-.35.49,0,.72.08.73.24.71.2.8-.06.51-.17.64-.21.53-.68,1.08-.11.26,0,.37.42,1.28,0,.41.25,1.24.23,1,.25.79,0,.22V90.13h-4.53v2.4l-2.18-1.13-2.17-1.14-2.17-1.14L822.54,88l-2.17-1.14-2.17-1.15L816,84.57l-2.17-1.15-2.18-1.16-2.17-1.15L807.34,80l-2.17-1.16L803,77.64l-2.17-1.17-2.18-1.16-2.17-1.16-1.5-.81-1.61.79-1.27.61-1.67.81h0l-1.92,1-1.47.81H787l-.07,0L785.37,76,784.17,75l-.53-.3-2.26-.55-2.24-.54L776.78,73l-.43-.87-.48-1-.65-1.23-.39-.75-.14-.12-1.81-.59L771,67.85l-1.12.36-.2,0-.31-.22-.32-.3-.17-.43-.45-.57-.41-1.3,0-1-.09-.37-1-1.46L766,61.15l-.6-.89-.12-.41.07-.49.24-.45.88-.53.79-.57.11-.4,0-1.11-.26-.34-.19-.66-.19-.88,0-.57.35-1.14.41-1.19-.26-1.32-.2-2.66.13-2.11-.1-.76-.07-.32-.27-1-.33-1-.15-.36-.43-.84-.7-1-.37-.64.5-.33.45-.27.54-.27.77-.32.39-.24.17-.2.58-.81.3-.45.41-.62.18-.43v-.4l-.07-.49-.32-1.15-.26-1.13.2-.44.17-.21.35-.53.15-.11.77-.16.3-.36.24-.44.06-.24.33-.24.41-.25.24-.32.81-.49.74-.45.87-.47.66-.37.14-.32v-.28l-.36-.63v-.75l0-.63,0-.36.16-1v-.15l.69.35.71.13,2.11,1.27.67.16,1.48.15,1.74-.52.66-.09,1.15.49.5.14.85,0,1.46.45.36.15.85.7.41.22,3,.64.41.43.42.81,0,1,.23.73.37.95.45.67.5.55.58.35,1.31.51,1.49.2,1.5.07,2.57.7,2.18.82.54.4L805,36l2.18,1.91,1.21.65.84.13.76-.12,1.36-.65.55-.4,1.36-1.64.45-.86.18-.61,0-.62-.17-.56-.38-.58-.27-.78-.16-1.39.22-1,.26-.58.41-.59,1.12-1.14,1.14-.81,2-1.05h1.16l.48-.12,1-.74.39,0,.53.18,1.58-.05.69.21.83.46,1,.29.74.29.78.37.18.91-.09.28,0,.35.82.63,2.32.3.46.17.63.48.41.15,1.59.06.93-.1.88.17.32.16.34.38.41.91Z"/><path id="MA" class="cls-1" d="M712.47,12.58l.13.41.27.33,1,.75.56.46,0,.16-.18.38-.08.26.15.27.35.34,0,.16-.09.19-.18.35.39,1.06.06,1-.1.73v.41l0,.36.33.81-.22,1.35.25.74.34.59.18,1.06.27.5.45.44.25.15.49.36.35.31.2.45-.44.37-.35.33-.1.36.17.57v.3l-.23.1-.91,0-.72,0-.82,0-1.16-.06-.72,0-1,0-.34,0-.91.16-.63.12-.11,0-.2.14-.14.42-.12.48-.13.21-1.92.69-.74.1-.44-.07-.31.05-.26.15-.09.22v.29l0,.29.19.4,0,.4-.12.28,0,.28-.05.31.1.16.18,0,.19.14.26.12.21.25v.34l-.19.19-.16.11-.71.09-.57.07-.74.55-.79.58-.93.39-.42.11-.71.28-.87.45-.42.73-.53.84-.52.57-.7.53-.66.2-.82.26-1,.2-.74.06-.22,0h-.64l-.32,0-.24,0-.09.06,0,.14,0,.3,0,.34-.21.29-.14.13-.17.06-.55-.08-.45-.09L690.38,42l-.22,0-.08,0-.34.2-.52.41-.35.37-.27.17-.63.09-.27.13-1.17.91-.25.22-1.21.78-.34.27-.27.25-.72.59-.46.25-.08.15,0,.36v5h-.62l-19.75,0v0l.62-.59.41-.74.7-.33,1.48-.16,2.19-.61,2-.93.56-.37.59-.75,1-1,1.84-1.16.85-.65,1.3-1.64.86-1.36.72-.88.49-.78.35-.79.19-1.27-.13-.5-.54-.82-.37-.22-.1-.39.2-.68V34.43l.11-1.89.61-1.52,1.49-2,.27-.82.17-1.32,0-.46,1.85-1.88,1.09-1.44.38-.36,1-.66,3.35-1.44,1.89-1,1.1-.76.66-.9,1.83-3.53,1.79-5,.15-.58.8-.17.57-.08.45-.18.57-.38.54.15-.27.26V9l.39.73.66.82,1.22,1,.95.41,1.35.25,1.57-.45h.89l.42-.2.47.29.89.09.85-.15.65-.43.41-.5.07.24,0,.27.12.16.26.63.13.25.49,0,.43.12,1-.06Z"/><path id="MG" class="cls-1" d="M947.07,239.29l.21.49.24.46.76,1.13.32.43.28.46.13.92.49,1.44.45,2.15.14,2.22.14,1,.35,1,.58,1,.19,1.11-.35,1.15-.52,1.08-.13.2-.24.28-.11,0-.41-.27-.33-.46-.43-1.07-.15-.55-.18-.08-.5,0-.36.34-.06.21.07.61.14.54.06.56v.69l.14.21.19.18.21.46,0,1.08-.12.56-.35.47,0,.26.13.27L948,260l-.46.21-.19.18-.25.48-.41,1-.06.51.26,1.53L946.8,265l-.52,2.08-.3,1-.43,1.18-.65,1.57-.64,2-.55,2-.4,1.22-.46,1.21-.63,2.14-.53,2.18L940.9,284l-1.1,2.69-.12.35-.22,1.39-.25,1.2-.29,1.19-.62,2-.07.61-.13.59-.6,1.24-.25.46-.17.5-.1.62-.18.6-.43,1.12-.65.95-.43.35-.95.51-.49.1h-1.06l-1,.29-1.07.56-1,.64-.4.3-.44.17-1.37,0-.41-.14-1.37-1.05-.53-.17-1-.14-.31-.09-.27-.14-.41-.55-.81-.46-.19-.14-.13-.32-.08-.34-.21-.39-.15-.72-.27-.51-.74-.9-.08-.29-.06-.95,0-.64-.07-1.18.09-.55.26-.5-.11-.53-.27-.57-.11-.58L920,290l-.78-1-.18-.47-.13-.48-.29-1.51,0-.53,0-1.11.1-.57.19-.4,0-.29.12-.26.19-.2.12-.24.29-1.42.37-.31.55-.18.43-.37.26-.5.25-1,.68-1,.25-.54.56-.8.49-1.13.15-.53.1-.55.13-1.19.09-.59,0-.59-.28-.6-.67-1.1,0-.2.05-.81L923,269l-.25-.58-.32-.55-.31-1-.15-1.69,0-.61-.09-.54-.23-.52.16-.9,2-3.26.06-.39-.08-1,0-.57.06-.22.16-.12.34-.06,1.62-.14.21-.11.4-.27.56-.53.25-.15.22.06.14.22.18.13.66-.24H929l.26,0,.12-.22.07-.3.09-.2.18-.12.84-.07.54-.08.69-.21.15,0,.56.75.17.06.22,0,.19-.13-.46-.39-.07-.22,0-.25.24-.54.41-.4.9-.62.94-.72.28,0,.23.12.17.84,0,.14.15,0,.18-.11.15-.33v-.29l-.13-.27-.06-.23V252l.47-.5.38-.47.17-.57.15-.26.4-.29.11,0,.1.24.05.26-.1.25-.15.25-.06.33.23.06.21-.08.3-.6.35-.56.21-.3.27-.2.43,0,.43.12-.69-.59-.18-.82.83-1.42v-.29l.12-.09.06-.11-.43-.48-.08-.24.06-.36.2-.31.19-.23.26-.08.21.12.46.39.31.06.37-.37.31-.47.45-.33.53-.19.79-.74.52-1.55,0-.45-.12-.54-.18-.52-.31-.64.08-.15.44.09.14-.09.47-.57.78-1.1h.26l.22.21.08.3.15.22.53.52.26.37Zm-5.42,4.33v.17l-.59-.07-.09-.58.29,0,.06-.24.18,0,.19.52,0,.25Zm7.23,16.6-.51.87.14-.72.59-1.05.17-.08-.39,1Z"/><path id="ML" class="cls-1" d="M741.7,94.26v10.23l-.15.16-.05.78,0,1-.28,1.06-.48.78-.17.74-.14.42-.18.23,0,.28-.09.39-.16.25-.12.13-.48.15-.86.75-.07.59-1-.16-1-.17h-.13l-.09.08,0,.31-1.42,0-1.21,0-1.51,0-1,0-1.31.07-1.22.07-.81.68-.73.65-.06,0-1,.12L724.5,114h-.67l-.26.08-.05.25-.95-.35-1.1-.35-.77.22-.13-.07-.1-.15-.37-.08-.59,0-.42.1-.67.52-.51.44-.13.11-.71.27-1.31.63-.74.47-.17.08-.33.11-.51,0-.42.12-.38,1.22-.25.12-1.56-.49-.32.07-.27.15-.87.71-.43.58-.24.76,0,.24v.26l-.15.15-.21.05h-.19l-.72-.16-.23.07-.1.38,0,.82-.16.56-.43.17-.33.22-.27.07-.21-.06-1.26-.83-.43-.14-.47.1-.45.35-.21.23-.28.28-.32.36.09.31.22.36.16.44v.4l-1.14.57.09.19.17.23v.41l0,.72-.23.26-.3.25-.19.33-.18.17-.33.2-.44.2-.78.18-.62.12-.23.12-.33.24-.27.29-.06.31,0,.36.1.29.11.2.07.25-.09.68-.23.78-.21.35-.35.19-.3.22.1.51,0,.73-.09.59v.36l-.13.38-.07.27-.15-.07-.63,0-.67.2-.24.16,0,.22-.15.15-.22.17-.21.2-.37,0-.36-.14-.19-.14v-.08l.11-.2.11-.21v-.15l-.12-.35-.1-.37,0-.18-.09-.56,0,0-.48.15-.17,0-.1.06,0,.11.11.35-.07.06h-.27l-.37-.11-.41-.33-.1.11,0,.26,0,.3.1.55-.1.2-.28,0h-.36l-.32.06H691l-.13.2-.06.22.13.24,0,.11-.1.09-.12.06h-.11l-.29-.27-.35-.1-.82-.16-.1-.37h-.13l-.19-.2-.19-.26-.16,0-.13.07-.45,0-.4.39-.29.49-.32.23-.35.1h-.13l.07-.31,0-.23-.1-.2-1-.53-.15-.22-.16-.61-.11-.6,0-.36.06-.32,0-.25-.12-.19-.3-.18-.32-.08-.4.24-.2,0h-.18l-.09-.09v-.12l.44-.66.22-.27.25-.2.18-.11.11-.16v-.13l0-.09-.29-.12-.45-.3-.23,0-.2-.14-.21-.47-.1-.09-.21,0-.19-.12v-1.15l-.43-.86-.17-.54-.21-.56-.21-.26-.35-.22-.43-.15-.38,0-.29,0-.14.07v.1l.23.36,0,.19,0,.19-.08.13h-.21l-.38.11-.45.22-.32.18-.26.46-.18.06-.3-.06-.86-.34-.71-.28-.49-.16-.29.1-.15,0-.42.19-.56.69-.14.22-.11.08-.15.12H674l-.11-.08,0-.05-.29-.5-.31-.54-.26-.25h-.33l-.27.17-.29.35-.36.33-.24.09-.2,0-.49-.41-.36-.29,0-.15.12-.22.13-.34.13-.27.13-.12,0-.35-.3-.24v-.12l0-.33.14-.68,0-.27.12-.51-.19-.23-.05-.17-.22-.27-.25-.39-.06-.31-.09-.24-.24-.38-.18,0-.38-.06-.06.13-.15.18-.12.06-.21-.23-.08-.2v-.17l-.28-.31-.44-.57,0-.47.27-.25.09-.19,0-.22-.12-.26-.15-.2,0-.46,0-.63-.23-.31-.2-.23-.28-.25-.24-.38.09-.53.1-.36-.43-.75.8.29.1-.09.27-.19.37-.38.31-.51.14-.62.06-.55.14-.46.17-.39.38-.4.36-.29.43-.3.21.06.41.41.89.84.73.64.27.33h.24l.36-.62.38-.53.16-.13.5-.06.42,0h.37l.68.1.31.09.29.06.85,0,.85-.13.8-.17.59-.1,0-.25,0-.3.1-.22.18-.21.16-.05.07.72.19.1.53,0h16.61l.26-1.38.23-1.26.2-1.06-.68-.75-.54-.6-.12-1.14-.13-1.18-.13-1.17-.13-1.18-.13-1.19-.13-1.18-.13-1.19L696,97.1l-.13-1.19-.13-1.19-.12-1.19-.13-1.2-.13-1.19-.13-1.2-.13-1.2-.13-1.2-.13-1.21-.13-1.2-.13-1.21-.13-1.21-.13-1.21-.12-1.22-.13-1.21-.13-1.22-.13-1.22-.13-1.22-.13-1.23L693.41,73l-.13-1.23-.13-1.23L693,69.26,692.9,68l-.13-1.24-.13-1.14h8l1.39,1,1.25.9,1.49,1.07,1.48,1.06,1.49,1.07,1.48,1.06,1.49,1.06,1.48,1.06,1.49,1,1.48,1L716.67,77l1.49,1,1.48,1,1.49,1,1.48,1,1.48,1,1.49,1,1.48,1,.67.46.06.19.06.39,0,.44v.36l.19.24.37.26,1.45.77.12.15,0,.32.17.39.31.22.36.17.44.12,1.31.12.28.18.57.7.31.14.88.21.63.11.26.06.58.19.62.32.33.3v1.1l.11.41.13.31v.18l-.15.13-.13.16-.06.21-.18.27-.15.3.06.22.25.15.37.28.31.12H738l.17,0,1.11-.22,1-.2Z"/><path id="MR" class="cls-1" d="M700.67,65.64h-8l.12,1.14L692.9,68l.13,1.24.13,1.23.12,1.23.13,1.23.13,1.23.13,1.22.13,1.23.13,1.22.13,1.21.13,1.22.13,1.22.13,1.21.13,1.21.13,1.21.13,1.2.12,1.21.13,1.2.13,1.2.13,1.2.13,1.19.13,1.2.13,1.19.13,1.19L696,97.1l.13,1.18.13,1.19.13,1.18.12,1.18.13,1.18.13,1.18.13,1.18.13,1.14.54.6.68.75-.2,1.06-.24,1.26-.26,1.38H681l-.53,0-.19-.11-.07-.71-.16.05-.18.2-.1.23,0,.3,0,.25-.59.1-.81.17-.84.13-.85,0-.29-.06-.31-.09-.68-.1H675l-.42,0-.5.06-.16.13-.38.53-.36.62h-.24l-.27-.34-.73-.63-.89-.84-.41-.42-.21,0-.43.3-.36.29-.38.4-.17.39-.14.46-.06.54-.14.63-.31.51-.36.38-.28.18-.1.1-.8-.3-.1,0-.48-.34-.23-.4-.38-.3-.53-.21-.34-.23-.16-.26-.19-.17-.21-.09,0-.09,0-.13,0-.24-.31-.53-.28-.24-.25,0-.14-.06-.08-.12,0-.17-.16-.15-.3-.07-.23-.39-.18-.72-.23-.56-.28-.41-.2-.15-.15,0,0-.06,0-.12-.22,0-.31.12-.27,0-.14-.2h-.19l-.24.16-.26-.05-.3-.26-.16-.25,0-.26-.5-.51-1-.76-1.06-.36-1.15,0-.64,0-.14-.12h-.14l-.14.14-.15,0-.16-.07-.1.06,0,.19-.41.1h-.76l-.62.12-.48.24-.66.1-.87,0-.52-.09-.18-.14-.25,0-.32.07-.29.38-.25.68-.21.39-.16.09-.18.51-.1.85-.15.37v-2.11l.24-.79.08-.7.53-1.54.64-1.26.58-1.67.22-1.63-.08-1.59-.17-1.43-.29-.94-.29-1.36-.42-.72-.77-.63-.18-.37.18-.14.47-.09.3-.5-.63.19.73-1.51.23-1,0-.67.14-.42-.56-.91L648.08,87l-.23-.18-.23-.1,0,.27-.13.24-.27-.14-.48-.84-.67-1.35-.23-.14-.2.18-.12.18-.23,1.14-.07-.45.1-.53.16-.66.19-.9h17.91l0-.65,0-.51,0-.69,0-.69,0-.69,0-.64,0-.65,0-.6,0-.55-.06-.32-.22-.63,0-.32,0-.33.15-.31.41-.57.61-.44.71-.51.54-.39.27-.09.85-.14.66-.29.65-.29.27-.16,0-.53V60.62H683.2V54.08l.85.56.86.57.85.56.85.56.86.56.85.56.85.56.85.56.86.56.85.56.85.56.85.56.86.55.85.56.85.56.85.55.72.47,1.09.74,1,.7,1,.7ZM648.32,91.56,648,92l-.13-.17,0-.31.26-.44.12-.23.23-.08-.14.77Z"/><path id="MU" class="cls-1" d="M983.84,277.35l-.57.14-.64-.05-.25-.26,0-.11.22-.1,0-.33.11-.53.14-.21.32-.2.13-.42.27-.28.37,0,.36.52.25.55-.05.56-.25.2-.09.32Z"/><path id="MW" class="cls-1" d="M881,235.34h-.6l-.76.06-.18.14-.06.33-.24.66-.13.25-.28.44-.39.64-.09.2,0,.22.23.85.24.91.08.35.17,1.2.1.85v.5l.09.67.21.36.23.23.86.14.25.16.49.43,1.06,1.18.58.76.51.66.91,1.24.71,1,.09.9.12.13-.24.67-.16,1.09.12.72-.05,1.22-.13,1.31-.16.47-.21.18-.5.14-1.09.17-.17.15-.14.25-.22.61-.26.61-.08.26.05.06.24.32.23.79,0,1.37-.08.1-.32.06h-.35l-.15-.08-.12-.16-.1-.29.23-.2.08-.36-.14-.3-.3-.07-.37-.28-.79-.92-.66-.64-.39-.53-.39-.21-.11-.13-.1-.22v-.33l0-.23-.13-.27-.39-.41-.18-.23v-.28l.16-.26.34-.32.26-.65.09-.42.48-.85.07-.73v-.59l0-.43L879,250l-.09-.62-.59-.81-.19-.08-.56.07-.49.12-.24.17h-.36l-.94.14-.3.06-.17.14-.1,0-.59-.62-.53-.68-.66-1.15-.19-.14-.24-.33-.2.08-.28.24-.15.06h-.08l-.05-.06-.06-.16-.21-.43-.24-.31-.26-.12-.21-.14.09-.14.1-.1,0-.1-.12-.15-.45-.22v-.09l.4-.19.26-.22.17-.21.21-.47.18-.46L872,243l0-.31,0-.34.08-.45.05-.41-.14-.17-.11-.28.13-.47.21-.33,1-.35.7-.31.15-.13.24-.27.13-.25-.1-.08h-.55l-.13-.1-.4-.9.22-1,0-.41v-.51l-.07-.36-.17-.16-.11-.2,0-.54.16-.06.35-.72.16-.42-.19-.33-.2-.48-.1-.31-.05-.1.14-.19.24-.18.26-.05.28-.08.88-.89,0-.17-.16-.3-.33-.45-.08-.18,0-.54-.13-.16-.48-.36-.37-.38.12-.39.06-.42-.19-.23-.27-.24-.17-.35-.08-.27-.21-.1h-.2l-.14.16h-.16l-.19-.06-.06-.23,0-.24-.13-.17-.12-.23,0-.12.08,0,.17,0,.71.47.43,0,.47.08.41.41.21.06.27-.06.78,0,.31.05.39.24.16,0h.25l0-.07,0-.14,0-.29.05-.15.16-.17.42.2,1.05.89,0,.11.67.88.22.38v.2l.21.77,0,.36,0,.28V230l.08.31,0,.14.24.46.11.39,0,.38-.07.37-.21.54,0,.22,0,.2.14.21.22.23.17.28.12.33.1.15h.12l.23,0,.18.19.21.33.07.37,0,.16Zm-1.44,2-.09.25h-.19l-.17-.22,0-.17.17-.05.15.06.08.13Zm.35.45-.16,0-.1-.08,0-.25.05-.18.16,0,.11,0,.08.08v.13l-.05.14-.12.1Z"/><path id="MZ" class="cls-1" d="M871.59,308.86h-.49l-.86,0h-.5l-.56,0-.7-.15-.39,0,0-1.62-.12-.35-.14-.52,0-.34.08-.33,0-.53,0-.46-.42-.24-.09-.07-.09-.36,0-.56.3-.72,0-1.36,0-.49v-4l-.09-.41-.07-.23-.19-.47-.23-1-.27-.74-.34-.48-.11-.26-.11-.34-.32-.6-.27-.35-.07-.28V291l-.29-1.29-.22-.94-.32-1-.22-.68,0-.12,0-.26.65-.5.64-.71.75-.84.67-.74.6-.65.8-.89.8-.88.19-.11.08-.07-.34-.78.55-.9,0-.59,0-.56.07-.26L870,278l.65-.47.49-.74.41-.7.55-1.12.06-.26v-.28L872,274l-.38-.61-.27-.53-.24-.81.25-.71.08-.43v-.23l-.11-.21-.27-.17-.22-.11-.08-.29v-.34l.1-.2.6-.31.14-.16.07-.19v-.27l.18-.67.23-.64,0-.22-.08-.2-.07-.36,0-.54v-1.51l.12-1.56,0-.88-.39-1,0-.73.28-.51,0-.3-.2,0-.42,0-.31-.09-.48-.42-.84-.35-.94-.32-1.38-.09-1.14-1-.9-.17-.29-.13-.86-.6-1.35-.06-1.4-.06-.87,0-.13-.08,0-.83v-.75l-.07-.64-.13-.73-.21-.29-.24-.5-.12-.54,0-.27.05-.09,1-.39.41-.19.62-.22,1.09-.31,1-.27.9-.27,1-.28.38-.19.48-.19,1.15-.38.33-.13.66-.22.33-.08,1.27-.44,1.46-.5.51-.17,1-.34.19.14.66,1.15.52.68.6.62.1,0,.17-.14.3-.06.94-.14h.36l.24-.17.48-.12.56-.07.2.08.59.81.08.62.13.9,0,.43v.59l-.07.73-.48.85-.09.42-.26.65-.34.32-.17.27v.27l.18.23.4.41.12.27,0,.23v.33l.1.22.11.13.39.21.39.53.66.64.79.92.37.28.29.07.15.3-.08.36-.23.2.09.3.13.15.15.08h.34l.33-.06.08-.1,0-1.37-.24-.79-.23-.32,0-.06.08-.26.26-.61.22-.6.14-.26.17-.15,1.09-.17.5-.14.21-.18.16-.47.13-1.31.05-1.22-.12-.72.16-1.09.24-.67-.12-.13-.09-.9-.71-1-.91-1.24-.51-.66-.59-.76-1.06-1.18-.48-.43-.26-.16-.85-.14-.23-.23-.22-.36-.08-.67v-.5l-.1-.85-.17-1.2-.08-.35-.24-.91-.24-.85v-.22l.08-.2.4-.63.28-.45.13-.25.24-.66.05-.33.19-.14.76-.06h.6l1,0,1.07,0,.15,0,.24.07h.27l.3-.09.34-.23.36-.37h.57l.78.38.42.33.07.29.52.16,1,0,.7-.15.44-.34.46-.18.48,0,.37.11.24.26.48.18.7.11.76-.16.83-.44.48-.46.11-.47.14-.29.16-.1.44-.06.72,0,.63.15.8.47.5-.31.87-.54.88-.28h.83l.68-.21.53-.4.57-.26.59-.11.56-.2.77-.42.81-.61.82-.63.53-.4.24.47.43.44-.26.25-.31.22.5.31-.36.45-.05.32.09.12.08.19-.24.52-.32.4-.08.31.28.54-.14,1,.27.87.08.44.09.3-.13.53,0,.89.07.37-.17.46.28.16.15.51,0,.57-.09.31-.47.37-.06.14v.22h.59l0,.34,0,.27,0,.5-.08.33.14.37-.17.41.06.32v.42l.14,1,0,1.3,0,.21.21.14.3.08v.35l-.33.47,0,.29,0,.4.37-.55h.22l.19.22,0,.31.07.16,0,.31.1.39,0,.34-.27.24-.34.41-.06.38,0,.26-.23.07-.11.16.16.36v.32l-.42,1-1.11,1.36-.48.49-.45.53v.22l0,.18-.52.76-.57.12-.31.2.25.67-.37.15-.63.53-1.74,1-.27.23-.44.62-.58.15-.32.17-.58.07-.2-.05-.2,0-.17.13-1.14.43-1.07.35-.26.16-.18.21-1,.34-1.48.84-1.21.81-.88.8-.23.13-.27.27-.1.42-.08.23-.65.85-1,1-.19.27-.39.56,0,.37-.35.11-.29-.35-.12.68-.24.05-.26-.14-.66.33-.57.39-.92.82-1.3,1.58L881,274.09l-.26.05h-.17l-.6-.53-.32,0,.29.32.19.26-.05.52,0,.78-.24,1.51,0,.33.27.43.51.53.48.65.61,1.89,0,1,.63,1.25,0,.54.25,1.35V286l0,.67.31.28.11-.26,0-.42.08-.68.17-.3.17,0,.05.32.11.28,0,.27v.36l-.24,1.38.07.56.32.94-.37,1.1-.53,2.58,0,.44.13.2.29.07.1-.33h.17l.09.19-.24,1.2-.23.52-.83,1.29-.45.55-.74.55-1.75.85-3.49,1.23-1.39.6-.83.37L871.94,302l-.76.77-.32.89-.3.4-.3.52.26.44.25.34.3.22.16.2.2.13.21-.69.1-.22.17,0-.09.85-.21,2.93,0,.12Zm8.31-71.06.12-.1.05-.13v-.14l-.08-.08-.11,0-.16,0-.05.18,0,.25.1.08.16,0Zm-.35-.45-.08-.13-.15-.06-.17.05,0,.17.17.21h.19l.09-.25Z"/><path id="NA" class="cls-1" d="M828.51,263.72l1-.2.93-.18,1.07-.19.87-.15.21,0,2.08.18.9.12.32.12.41.31.75.76-.19,0-1.39.16-.53.21-1.19.89-.25-.12-.29-.18-.24-.05-.52.21-.52.26-.57.36-.47.36-.16.19-.74.74-.24.12-.22.05-.09,0-.09-.32-.45-.74-.73-1-.22-.09-.14,0-.54.05-1.58.27-1.32.23-2,.4-2.18.31-1.35.2-1.17.06v17.58l0,.18h-4.51v32.34h-.47l-.93.28-.6.37-.26.45-.34.27-.43.1-.19.23,0,.36-.16.28-.38.19-.62-.06-.85-.3-1.08-.07-1.31.16-.94-.08-.58-.31-.61-.18-.64,0-.38-.13-.76-.23-.15-.4-.09-.3-.22-.32,0-.26.17-.19,0-.31-.13-.43-.21-.21h-.3l-.18-.17-.08-.34-.18-.26-.42-.26-.55.2-.27.3-.15.47-.14.23-.07.39,0,.28-.14.3-.15.12-.15-.06-.29.12-.63.44-.18.23-.51-.42-1.48-1.57-.53-.41-.78-.95-1.71-3-.24-.57-.33-1.42-.37-1.06,0-.61.18-.34-.11-.47-.19-.41-.58-.55-.17-1.81-.39-1.17.09-1-.19-.88,0-.56.08-1.07-.31-1.22-.63-1.2-.58-1.72-.08-.75.06-2-.11-.82v-1l-.23-1-.09-.54L788,289l.09.14.17.06.11-.57,0-.5-.28-1.25-.64-1.27-1.58-2.06-.39-.79-.22-.64-1.76-2.71-.75-1.9-.53-1.64-.57-.76L779,269.85l-.59-.84-1-1-.25-.34-.41-.95-.79-1.28-.19-1.19-.06-1.36.1-1,.72-.11.51-.27.45,0,.45.22h.48l.18,0,.86,0,.49-.25.58-.25.34-.21.47-.23.63-.22.35,0,.44.08.58.09.33.15.38.48.61.44.44.26.51.34.15.13.22.08.14,0,.95-.05.85-.05h15.5l1.24,0h1.31l.14,0,.15.09.12.09.46.6.58.64.5.3.58.17.55.07.51,0,.85.08,1.19.2,1.24.06,1.28-.08.9.11.52.31.53.21.55.11.73-.06.93-.24.79,0,.37.18h.22l1.36-.25,1.1-.2,1.65-.32,1.36-.27,2-.39Z"/><path id="NE" class="cls-1" d="M790.43,75.55l.49,2.84.38,2.43,0,1.54,0,.4.15.27.35.28,1.42,2.22-.3.38.21.69.37.29,1.18,1.32.16.26-.07.21L794,90.23l-.15.37-.16,2L793.57,94l-.16,1.89-.19,2.27-.15,1.9-.21,2.51-.19,2.37-1.19,1.3-2.11,2.3-1.71,1.87-.86,1.25-1.68,2.43-.75,1.57-.59.82-.29.35.26,1.15.46,2h-.82l-.46.14-.59.46-.66.18-.8.4-.51.31-.48.26-.65.61-.22.47-.65.09-.91-.07-.58-.48-1.34-.49-.88-.2-.4-.06-2-.08-2.19.19-1.12.23-.2,0-.64.3-.52.33-1.42,1.5-1.88,0-1.11-.16-.93-.24-1.34-.7-1.64-1.08-.63-.15-.56-.08h-.19l-2,1.08-.37,0-.46.12-.31.27-.22.13-.24,0-.3-.06-.3-.17-.3-.3-.81-1.19-.17-.21-.34-.35-.58-.55-.39-.26-.24-.07-.28,0-1.57-.48-1.57-.5-.35.07-.24.1-.55.37-.64.07-.81,0-.44,0-.72.12-.48.15-.63.25-.81.69-.23.08-.2.12-.27,1.87-.22.56-.41.74-.81.71-.56.43V126l0,1v.65l0,.42-.1.2,0,.18,0,.28.14.13.07.17,0,.14-.26.17-.29-.42-.37-.3-.41-.13-.27-.22-.15-.3-.53-.58-1.23-1.16-.13,0-.2,0-.35.13-.21.19-.15.08h-.23l-.58.15-.47.18V127l.22.87-.11.48-.2-.23-.68-.88-.47-.65-.08-.15-.07-.23,0-.09.19-.07.42-.09.08-.07,0-.18-.06-.33-.24-.46-.25-.3-.14-.06h-.25l-.28,0-.52.37-.23.07-.54,0-.48-.07-.29-.19-.87-.74-1-.77-.41-.11L727,123l-.06-.6v-.71l0-.19.41.11.42,0,.14-.13-.34-.25-.49-.26-.19-.39-.14-.14-.22-.14-.25-.07-.25-.11-.18-.11-.28,0-.3-.09-.44-.63-.42-.62-.25-.49-.09-.29.13-.5-.13-.19-.47-.51-.39-.47.09-.73.08-.61v-.38l.06-.22.05-.25.26-.07h.67l1.29.12,1-.13.06,0,.73-.65.81-.68,1.22-.07,1.31-.07,1,0,1.51,0,1.21,0,1.42-.06,0-.31.09-.08h.13l1,.17,1,.16.07-.59.86-.75.48-.15.12-.13.16-.25.09-.39,0-.28.18-.23.14-.42.17-.74.48-.78.28-1.06,0-1,.05-.78.15-.16V94.26l1-.2,1-.2,1.49-.31,1.62-.33,1.77-.35.4-.22,1.33-1.22.6-.55,1.2-1.09L753,89l1.17-1.08,1.25-1.08,1-.87,1.55-1,2.35-1.48L762.7,82,765,80.48,767.39,79l2.35-1.5,2.34-1.5,2.35-1.5L776.78,73l2.36.58,2.24.54,2.26.55.53.3,1.2,1.07,1.53,1.36.07,0H787l1.47-.8,1.92-1Z"/><path id="NG" class="cls-1" d="M784.21,120l.71,1,.76,1.07.6.84.44,2.16,0,.42,0,.18,0,.17.06.29.34.13.65.06.47.21.28.35,0,.06.15.27,0,.2,0,.57-.1.72-.16.47.09.64,0,.27-.07.18-.29.21-.39.21-.94.62-.27.09h-.39l-.34.16-.41.33-.87,1.23-.74,1.23-.26,1-.29,1-.66.62-.09.35,0,.2,0,.47-.08.78-.1.37-.1.11-.71.24-.41.28-.24.56-.09.61-.14.7-.08.61-.11.31-.24.33-.36.36-.31.2-.81.13-.42.81L778,145v.26l-.34,1.3-.6,1,0,.34v.29l-.74.86-.19.25-.19.34.18.32.21.29,0,.1-.33.27-.59.48-.35.29-.08.15-.05.72-.1.19-.24.27-.34.28-.35.23-.4.15-.38.06-.21-.09-.12-.22-.21-.87-.11-.19-.25-.17-.49-.48-.49-.49-.6-.34-.12,0-.1.09-.17.49-.17.18-.31.06h-.55l-.39-.07-.09-.09-.08-.22-.11-.16-.48.34-.74.54-.25.08-.18.11-.25.51-.3.53-.39.28-.38.24-.21.21-.32.24-.61.61-.81.8-.28.42-.28.62-.17.69-.18.75-.26,1.21-.39.69-.34.54-.25.43-.13.35h-.06l-.13.15-.38-.1-.17-.3-.23-.05-.4-.45-.09.07.43,1.14-.16.45h-1.2l-1,.15h-.71l-.36-.17-.16-.42-.06,0,0,.23-.23.18-.79,0-.36-.29-.28-.33-.31-.14,0,.13.35.32,0,.46-.64.54-.41,0-.25-.23-.13-.38-.07-.55-.17-.36h-.09l.09.33,0,.27v.56l.3.44-.46.13h-.57l-.07-.17-.07-.36-.1-.09-.11.61-.25,0h-.17l-.74.13-.16,0,0-.11.09-.17,0-.27-.25.21,0,.42-.15.07-.44-.06-.48-.22-.29-.22-.49-.31-1-.87-.16-.39-.27-.48-.2-.49-.3-.83.09-.06.22.07.11-.12-.39-.09-.09-.1,0-.29v-.36l.33-.12.28-.07.14-.21.08-.22-.74.33-.7-.37-.15-.23.08-.17.33,0H747l.29-.16-.18-.06h-.3l-.12-.11v-.27l-.1.06-.13.24-.47.18-.27-.18,0-.39-.06-.18-.23-.14-.82-1-1-.87-.92-.6-1.38-.28h-2.9l-.16-.08.18-.14.25-.09.93-.49-.16-.06-1,.3-.33,0-.43.58-2.55.1-.3,0v-.27l.12-.76.09-.3.09-.23-.1-.27-.09-.37,0-.58.12-.18,0-.22,0-.35V149l.07-.12.08-.1v-.15l-.16-.3-.14-.34v-.49l0-.47-.1-.21.07-.81,0-1,0-.45.1-.32.05-.79v-.77l.19-1.22.56-.06.66-.1.3-.48.17-.61,0-.6.13-.19.26-.33.49-.47,0-.51.13-.16.23-.11.32-.06.37-.26.2-.45.2-.71-.32-.5v-.11l.12-.27.19-.26.15-.09.36.07.06,0,.05-.08.23-.79,0-.21-.33-.53-.05-.38,0-.56-.08-.5-.1-.18-.17-.16-.08-.1-.69-1v-.48l.29-.61.19-.3.26-.17,0-.14-.08-.17-.13-.13,0-.28,0-.18.09-.2,0-.42v-.65l0-1v-.57l.55-.43.81-.71.42-.74.22-.57.27-1.87.2-.11.23-.09.81-.68.63-.25.47-.15.72-.12.45,0,.81,0,.64-.07.54-.37.25-.1.34-.07,1.57.5,1.57.48.29,0,.23.07.4.26.58.55.34.35.17.21.8,1.19.3.3.3.17.31.06.24,0,.22-.13.3-.27.47-.12.37,0,2-1.07H758l.57.08.63.15,1.64,1.08,1.33.7.94.24,1.11.16,1.88,0,1.42-1.51.52-.32.64-.3.2,0,1.11-.23,2.19-.19,2.06.08.4.06.87.2,1.35.49.58.47.91.08.65-.09.21-.47.66-.62.47-.25.51-.32.8-.39.66-.18.59-.46.47-.14Zm-28.58,42.61-.44.14-.29,0,.39-.6.2.13.26.06-.12.31Z"/><path id="RE" class="cls-1" d="M975.44,281.49l-.64.15-.45-.05-.88-.42-.24-.27-.35-.77.08-.27.28-.48.63-.19.66.07.3.13.35.56.45.57-.08.67Z"/><path id="RW" class="cls-1" d="M860.82,187.41l-.15.07,0,.22.17.34.57.73.35.13.24.28.22.47.07.59-.09.71.05.53.21.35.05.45-.09.55-.12.33-.14.11-.16,0-.22,0-.26,0-.29.11H861l-.11,0-.21-.09-.34-.28-.62.15h-.17l-.23.14-.18.16-.12,0-.11,0-.54-.33h-.2l-.08.94-.09.53-.11.23-.38.23-.39.13h-.21l-.85.07h-.33l-.19-.07-.24-.54-.45-.24-.43-.11-.17,0-.16.28-.07.25-.42-.17-.12-.21v-.36l-.16-.5.09-.21.16-.13.35-.26.53-.37.12-.17.07-.28,0-.67,0-.56.06-.2.24-.44.32-.45.38-.47.23,0,.3-.18.32-.26.17-.1h.15l1-.23.1.07.15.46.09.06.13,0,.28-.1.5-.36.22-.21.26-.31.33-.34.18-.3.18-.17.24-.05h.44Z"/><path id="SC" class="cls-1" d="M974.27,203.84l0,.42-.22-.14-.06-.27-.29-.21-.16-.18.33-.23Z"/><path id="SD" class="cls-1" d="M865.16,80l-.15.44h24.65l.05,1.12.2.89.7,1.26.59.69.21.37,0,.17,0,.17-.17-.19-.31-.13,0,.6.07.42.07.79.25.84-.18.79,0,1.32.31,1.59-.06,1,.51,2.35.5,1.3.27.32.31.17.59.11.87.66.69.7.24.36.34.4.23-.07.14-.1.22.32,1.09.69.17.33-.4.31-.45.55-.12.22-.05.13,0,.16-.12.16-.26.22-.11.1-.06.15-.15.1h-.18l-.14.07-.23.1-.33,0-.34.1-.13.12-.27.1-.27,0-.09,0-.26.18-.31.25-.37.15-.13.05-.17.18-.26.85-.19.22-.32,0h-.41l-.36.07-.49-.09h-.24l-.06.18-.09.73v.32l-.19.36-.22.47.08.78,0,.77-.4,1.16-.06.26-.4.92-.2.34-.52,1.71-.2.53-.43.55.1.9.1,1,.1.9.14,1.34-.36,1.25v.69l-.25,1-.2.47-.18.27-.15.29-.28.62-.24.83-.1.85v.49l-.05.22-.08.15-.54.09-.76.1-.4.11-.28.17-.33.4-.67,1.1-.35.67-.54.92-.64.65-.13.32-.11.58-.23.93-.21.66,0,.54-.2.92,0,.44-.22.25-.3.24-.2.06-.44-.27-.33-.27-.14-.08-.29.18-.34.25-.4.59-.31.6.18,1.28,0,.28-.09.3-.48,1-.12.3-.17.57-.19,1v.24h-.87v0l0,0,0-.13,0-.2,0-.35.1-.42.29-.58v-.11l0-.11,0-.09v-.13l.05-.31v-.21l0-.08-.2-.51-.07-.08-2-1.62-.36-.44,0,0,0,0-1-.37,0,0v-.05l0-.07.12-.22v-.05l0-.09-.45-3.42v-.07l0,0,0,0,.06-.07.05-.08.06-.13v-.05l.07-.61v-.54l.26-.89,0-.38-2.16,0V127l0,.11v.12l0,.21.06.16v.23h-3l1.2,1.34v0l0,.07v.06l0,.47-.06.75V131l.07.31.32.61,0,.12-.07.14L867.27,134l-.06.08-.29.76-.29.44-.12.13-.5.62-2,1.94-.32.13-1,.05-.51,0h-.06l-.09,0-.05.05-.06,0-.06,0-.08,0-1.2-1.09-2.13-1.37-.21.12-1.21.59-.25.16-.14.11v.66l-.21.33-.39.37-1,.23-.55.2-.55.3-.09.07h0l-.22.2-.42.42,0,.32.06.29h-3.6l-.24-.23-.5-1h0l-.37.07-3.29-.12-.47.1-.94.42-.47.07-.49-.19-1.73-2-.37-.24-.14-.13-.26-.35-.37-.21-.12-.16,0-.21v-.45l-.12-.28-.27-.06-2.33.47-.33-.05-.49.08-.17.08L836,136l0,.28v.28l-.06.27-.18.31-.66.68-.14.3,0,.75,0,.39-.1.17-.29.29-.1.17,0,.23,0,.5,0,.23-.36.59-.08.2,0,.42,0,.13-1.05.33-.4.22-.24.33-.06.14h0l-.45-.12L831,143l-1.1-.1-.43-.15-.21-.23.07-.59-.11-.12-.18-.1-.12-.26,0-.3.58-.68.12-.36.09-1.25.06-.44,0-.52-.46-1-.4-.67-.65-1-.26-.32-1.32-1.35-.15-.21-.32-.57.16-.5.19-.75,0-.35-.09-.36-.33-.27-.3,0-.13-.14-.26-.2-.25-.15-.23-.3-.16-.41.11-1.48-.07-.2-.34-.06-.08-.1v-.29l-.18-.84-.2-.7.11-.39-.28-.53-.54-.23-.51.07-.55.11-.33,0-.22-.1-.16-.19-.08-.23.07-.35.3-.63.38-.52.76-.48.2-.25.12-.28,0-.32-.06-.34-.08-.31-.23-.41-.2-.48v-.33l.1-.23L823,119l.4-.32.1-.07.25-.17.22-.12.55-.34.13-.16,0-.19-.14-.16-.22-.22,0-.27-.06-.46-.12-.3L824,116l.16-.17.23-.22.29-.14.45-.12.18-.16.05-.31v-.29l.16-.22.22-.47.18-.22.29-.24.3-.31.13-.36,0-.34-.16-1,.34-.44.44-.36.63,0,1-.08.66-.15H830l1.08.2.09,0,0,0,.06-.27V90.16h4.53V80.46H864l.24,0,.44-.91.19-.07.29,0,.1.22Z"/><path id="SH" class="cls-1" d="M657.43,218.78h-.16l0,0,0-.1.07-.18.07-.1h.1l.15.12.12.11-.07.09-.21.08ZM696.73,256l-.4,0,0-.23.3-.23.21,0v.27Z"/><path id="SL" class="cls-1" d="M675.92,144v.14l-.13.66-.2.56-.14.14-.57.15-.25.24-.21.8-.13.63-.2.1-.85.91-.55.34-.39.3-.37.38-.46.37-.49.63-.35.66-.24.2-.18-.19-.85-.64-.88-.43-1.89-.72-.63-.21,0-.25.21-.47-.35-.55.14-.4h-.14l-.27.24-.58-.07-.38-.35-.31-.12-.14-.18-.2-.9-.14-.42-.29-.25-.58-.06-.24-.56-.32-.43,0-.26h.27l.2.19.33.08.41-.46.37-.25.09-.23-.05-.12-.22.19-.61-.05-.15.17-.28,0-.21-.54v-.32l.09-.35.61-.06.06-.12-.43-.07-.53-.42-.1-.28.26-.1.26,0,.22.06.24-.1.22-.16.13-.2.18-.53.58-.18.34-.33.33-.51.15-.35.13-.18.08-.16.07-.17.14-.15.15-.38.11-.34.33-.17.68-.15.62.25,1-.21,0-.33h2.89l.31.08.11.24.3.38.31.26.38.57.44.67.48.6.31.33,0,.11,0,.13-.16.31-.13.33v.12l.1.07.5.1.05.37v.51l.24.47.23.35v.13l-.57.59-.22.6-.11.16,0,.14.12.06.15,0,.22.05.21,0,.28-.22.46-.54.16-.07.34.06Zm-10.16,4.8-.07.11-.3-.29-1.56-.44.44-.23,1.08-.07.33.13.14.12,0,.21-.11.46Z"/><path id="SN" class="cls-1" d="M666.87,114.79l.43.75-.1.36-.09.53.24.38.28.25.2.23.23.31,0,.63,0,.46.15.2.12.26,0,.22-.09.19-.27.25,0,.47.44.57.28.31v.17l.08.2.21.23.12-.06.15-.18.06-.13.38.06.18.06.24.37.09.24.06.31.25.39.22.27.05.17.19.23-.12.52,0,.26-.14.68,0,.33v.12l.3.24,0,.35-.31-.06-.53,0-1.06.18-.36-.08-.7,0-.5.1-.63.22-.49,0-.26-.18h-.35l-.39-.09-.42-.18-.38-.08-.41-.32-.2,0-.13.08-.12.1-.11.07-.23-.06-.08-.21.07-.21,0-.16-.11-.08-.25,0h-.4l-.66-.07-.15,0-1.47-.05h-6.64l-.83.42-.89.46-1.2.24-1.38-.09-.44.07-.46.2-.34.15-.47.09-.62-.08-.24,0-.16-.21-.18-.34.12-.24.37-.16.56-.21.3.11H648l0-.13L648,125l-.43-.18-.22-.24-.18.14L647,125l-.13.09-.19.08-.11-.2,0-.19.09-.15,0-.84.05-.45,0-.39.27-.26.25-.16,1,0h2.7l.09-.79.29-.06.42-.08.8-.1.89-.09.19-.15.14-.26.1-.23.18-.1.25.07.32.13.34.19.39.17.25.11.62.28,1.06.38.87.16,1-.28.76-.18.09-.34-.11-.33-.57-.3-.77,0-.23.08-.36.1-.22,0-.36-.07-.46-.26-.29-.26-.4-.12-.48-.13-.77-.54-.41-.1-.38,0-.73.1-.71.29-.37.66h-.72l-1.52,0-1.39,0-1.15,0-.11-.47-.27-.38-.45-.33-.09-.3.15-.26.42-.22.1-.15-.22,0-.34.14h-.23l0-.42-.38-.53-.42-.91-.48-.38-.4-.73-.42-.29-.39-.13-.33,0-.12.33-.41-.48.56-.17,1.2-.61,1.38-1.75,1.24-2.07.16-.49.15-.37.1-.84.17-.51.17-.1.21-.38.25-.68.29-.38.32-.08.25,0,.18.14.52.08.86,0,.67-.11.47-.23.62-.12h.77l.41-.1,0-.2.1-.06.16.08.16,0,.14-.14h.14l.14.12.64,0,1.15-.05,1.06.36,1,.76.5.51,0,.25.16.26.29.26.27,0,.24-.16.19,0,.14.2.27,0,.31-.12.22,0,0,.11,0,.07.15,0,.2.14.29.41.22.56.18.72.23.4.29.06.17.15,0,.17.08.12.14.06.25,0,.28.25.31.53,0,.23,0,.13,0,.1.21.09.19.17.16.26.34.23.53.2.38.3.23.4.48.34Z"/><path id="SO" class="cls-1" d="M910.79,190.25l0-.37-.08-.19-.42-.55-.81-1-.6-.78-.63-.8v-6.37l0-3.81v-6.51l.06-.12.71-.7.94-.93,1.23-1.76.67-1,.56-.8.14-.24.49-.49.93-.29.57,0,2-.37.29-.14.18-.17.16-.38.39-.54.49-.37,1-.48.92-.41.21-.06,1.11-.26.28-.09.45-.09h.18l1.54.09,1.21.07,1.25.07.13-.05.87-.95,1.39-1.52.88-1,1.37-1.5,1-1.08,1.16-1.19,1.13-1.1,1.35-1.31.86-.83,1.33-1.29,1.26-1.23,1.12-1.09h-4.53l-.27-.13-1.25-.42-1.58-.53-2-.67L929,144l-1.49-.49-1.51-.5-1.19-.39-1.48-.5-1.28-.42-.18-.11-.71-.65-.93-.85-.18,0-.45-.18-.4-.46-.41-.59-.38-.74-.17-.5-.51-.22-.25-.39-.46-.59-.32-.29-.12-.25-.15-.51-.26-.57-.25-.35-.06-.15v-.09l.47-.77.21-.27.24-.26.2-.27.08-.18.57-.89.5-.8.39-.62.89.71.86,1.44,1,1.16,1.38,1.07.55.36.49.2,2.52,0,1.79-1,1.63-.71.54-.15.94.19,1,.06.94.22.47-.06,1.86-.82,1.16-.81.79-.34h.31l1.08.29,1.4-.12,1.9-.7.6-.14h.47l1,.32.16,0,.56-.06,1.48-.33,1.15-.5,2.12-.36,1.62-.92.28-.44.49-.56.7-.18,1.81.65.29,0-.1.4-.07.41-.37.7-.23.78.17,1.2.08,1.93,0,.28-.12.28,0,.22-.19.07-.09.13.14.05.57-.21v-.23l0-.12.47.26.33.11.1.24,0,.17-.53-.08-.27-.13-.78.21-.48.23-.15.38-.11,1.51-.18,1,0,1.3-.63.86-.22.6-.94,1.21-.49,1-.16.5-.83,1.42-1.14,1.08-.41,1.39-.41.86-.46.79-1,1.4-.51,1-.65,1.69-.2,1.06L943,157.67l-1.88,2.46L940,162.2l-2.11,2.4L935,167.7l-3.76,3.67-1,.75-4.11,2.26-2.66,1.9-1.36,1.29-1.43,1.12-1.14,1.07-3.42,3.61-.35.34-.34.32-.43.61-.3.24-.81,1-.52.53-.57.53-.24.37-.17.43-.2.24-.51,1-.46.67Z"/><path id="SS" class="cls-1" d="M876.46,137.8l-.29.58-.1.42,0,.35,0,.2,0,.13,0,0v0H877v.18l0,.93,0,.81.05,1.33v.35l0,.43-.1.17-.24.24-.3.22-.76.06H875l-.45-.05-.62,0-.58.05-.21.19-.31.66-.45,1-.24.4-.07.24.08.14.29.21.66.29.76.16.56.08.38.08.3.08,1.07.74.34.34.19.31,0,.32.15.33.62.64.36.37.93.48.35.54.35.26.32.28.18.43.4,1.21.27.64.28.53.11.85.22.38.22.46.38.42.4.32.07.08-.83.82-.94.92-1.08,1.06-1.18,1.16-.92.92-.91.9-1.06,1.07-.78.78-.14.11-.22.15h-.75l-.77-.09-.71-.48-.73.37-.45.12-.28,0-.64.06-.9.2-.41.25-.22.2-.18.36-.1,0-.16,0-.23-.14-.49-.21-.24-.46-.22-.28-.19-.15-.77.46-.37.11h-.3l-.56-.26-.61-.22h-.32l-.47.28-.54.41-.27.41-.14.24-.1-.2-.09-.18-.18-.23-.26-.09-.23.05-.28,0-.12-.13,0-.31-.08-.3-.12-.22-.4-.21-1-.45-.78-.89-.4-.41-.29-.27-.41-.69-.46-.48-.57-.23-.37.11-.39.52-.72.48-.33,0-.43-.27-.54-.18-1-.08-.4.23-.52.37-.44.22-.27,0-.25-.09-.29,0h-.25l-.52-.34-.26-.25-.18-.24-.29-.16-.34-.14-.24-.21-.12-.26-.2-.34-.25-.31-.78-.55-.23-.33-.17-.32-.32-.35-.34-.47-.11-.68,0-.56-.07-.25-.15-.26-.17-.22-.27-.24-.64-.36-.66-.41-.32-.24-.6-.09-.36-.23-.3-.52-.12-.42-.31-.32-.13-.23-.07-.27.24-.82-.35-.29-.52-.38-.38-.41-.22-.38-.67-.5-1.46-.75-.85-.48-.46-.42-.4-.42,0-.18.26-.42,0-.34-.21-.38-.88-.72-.7-.79-.52-.24-1.28-.22-.36-.09-.38-.15-.38-.36-.13-.42.19-.67-.12-.21-.22,0h0l.06-.14.24-.33.4-.21,1.05-.34,0-.13,0-.42.08-.2.36-.59,0-.23,0-.5,0-.23.1-.17.29-.29.1-.17,0-.39,0-.75.15-.3.66-.68.18-.31.06-.27v-.28L836,136l.19-.27.17-.08.49-.08.33.05,2.33-.47.27.07.12.27v.45l0,.21.12.16.37.21.26.35.14.13.37.24,1.73,2,.49.19.47-.07.94-.41.47-.11,3.29.12.37-.06h0l.5,1,.24.23h3.6l-.06-.29,0-.32.42-.41.22-.21h0l.09-.07.55-.3.55-.2,1-.23.39-.37.21-.33v-.66l.14-.11.25-.15,1.21-.6.21-.12,2.13,1.37,1.2,1.09.07,0,.07,0,.06,0,.05-.05.09,0h.06l.51,0,1-.05.32-.13,2-1.94.5-.62.12-.13.29-.44.29-.76.06-.08,2.14-1.82.07-.15,0-.11-.32-.62-.07-.31v-.48l.06-.75,0-.47v-.05l0-.08v0l-1.2-1.34h3v-.23l-.06-.16,0-.21v-.12l0-.11v-.16l2.16,0,0,.38-.26.89v.54l-.07.61v.05l-.06.13-.05.08-.06.07,0,0,0,0v.07l.45,3.42,0,.09v.05l-.12.22,0,.07v.05l0,0,1,.37,0,0,0,0,.36.44,2,1.62.07.08.2.51,0,.08v.21l-.05.31v.13l0,.09,0,.11v.11Z"/><path id="ST" class="cls-1" d="M756.18,175.48l-.16.12-.2-.1-.06-.18L756,175l.12-.08.11.07.06.09v.14l-.13.29ZM752.72,182l-.47.33-.17-.08L752,182l-.13-.49,0-.24.21-.28.46-.27.28,0,.28.36v.37l-.41.56Z"/><path id="SZ" class="cls-1" d="M867.34,304.34l.09.08.42.23,0,.46,0,.53-.09.34,0,.33.13.52.13.35,0,1.62-.14-.07-.26-.07-.14,0-.12.73-.1,1.08.06.68-1,0-1.24-.07-.88-.3-1-.64-.57-1-.25-.62-.34,0-.06-.11,0-.76v-.8l.06-.21.65-1,.39-.61.25-.59.54-.69.58-.44.22-.07.15,0,1,.61,1,.57.23-.06Z"/><path id="TD" class="cls-1" d="M831.23,92.56v17.67l-.06.27,0,0-.09,0-1.08-.2h-.47l-.66.15-1,.08-.63,0-.44.36-.34.44.16,1,0,.34-.13.36-.3.31-.29.24-.18.22-.22.47-.16.22v.29l-.05.31-.18.16-.45.12-.29.14-.23.22L824,116l.08.21.12.3.06.46,0,.27.22.22.14.16,0,.19-.13.16-.55.34-.22.12-.25.17-.1.07-.4.32-.21.28-.1.23v.33l.2.48.23.41.08.31,0,.34v.32l-.12.28-.2.25-.76.48-.38.52-.3.63-.07.35.08.23.16.19.22.1.33,0,.55-.11.51-.07.54.23.28.53-.11.39.2.7.18.84v.29l.08.11.34,0,.07.2-.11,1.48.16.41.23.3.25.15.26.2.13.14.3,0,.33.27.09.36,0,.35-.19.75-.16.5-.19,0-.4-.13-.48-.1-.59-.09-.56.21-.61.26-.19.2-.17.11-.27,0-.24,0-.14.19-.22.21-.87.43-.19.16-.11.15v.17l.09.35v.44l-.2.35-.22.24-.26.09-.22,0-.14.15-.46.8-.19.15-.41,0-1.15,1.2-.11.36-.43.5-.53.56-.48.26,0,.11-.13.1-.3.12-1,.68-1.23,0-.53.26-.53.12-.77.13h-.23l-1,.05-1.16,0-.44.1-.42.25-.3.23,0,.08,0,.09v.08l.8.55.21.27-.21.26-.09,0,0,0-.13.21-.47.62-.72.74-.37.21-.15.14-.19.48-.12.07-.5.07-1,0-1.35.16-.81.05-.51,0-.71.33-.25.09-.16,0-.7.33-.59.5-.21.1-.82.22-.33.34-.15,0-.53-.46-.36-.41-.17-.43,0-.13-.1,0-.29.19-.25.21-.12.41-.85.27-.73.24-.33.29-.51.15-.65-.06-.51-.12-.49,0,.24-.37.09-.28,0-.33,0-.23-.29-.11-.19-.18-.43-1.06-.43-1.09-.62-1.08-.67-.68-.49-.42-.15-.06-.25-.13-.18-.12-.89-.73-.92-.82-.24-.37-.46-.56-.52-.57L786,139l-.12-.48.35-.42.38-.54.47-.36.61,0,1,.15,1.08,0,1.07-.11.27-.08h.28l.57.13,1,0,.52-.22-.56-.37-.6-.59-.56-.65-.34-.58-.31-.76-.29-.93-.17-1.21,0-.69.09-.49.31-.8-.2-.46,0-.38,0-.56-.1-.29-.39-.93-.07-.1-.35-.65-.15-1.07-.39-.72-.62-.34-.36-.42-.13-.74-.25-.2-1-.25h-.82l-.6-.84-.76-1.07-.71-1-.46-2-.26-1.15.29-.35.59-.82.75-1.57,1.68-2.43.86-1.25,1.71-1.87,2.11-2.3,1.19-1.3.19-2.37.21-2.51.15-1.9.19-2.27.16-1.89.12-1.39.16-2,.15-.38.82-1.55.07-.21-.16-.26-1.18-1.32-.37-.29-.21-.69.3-.38-1.42-2.22L791.5,83l-.15-.28,0-.4,0-1.54-.38-2.43-.49-2.84,1.67-.81,1.27-.61,1.61-.79,1.5.81,2.17,1.16,2.18,1.17L803,77.64l2.17,1.16L807.34,80l2.17,1.15,2.17,1.15,2.18,1.16L816,84.57l2.17,1.14,2.17,1.15L822.54,88l2.17,1.14,2.17,1.14,2.17,1.14Z"/><path id="TG" class="cls-1" d="M726.62,132.51l-.12.5-.24.61-.16.2-.11,1.49.08.12,0,0,.76.5,1,.66.7.47.06.16v1.81l.14.48,0,.47.18.35.64.67.16.4v1.28l0,1,.08,1.32v5.82l-.43,0,.24.53,0,.48.06.15-.12.23.1.35.18.13.48.71.15.6-.75.2,0,.15-1.42.32-.55.27,0-.26-.2,0-.25-.09-.16-.13-.21-.3-.08-.24-.33,0-.41-.27-.39-.3-.13-.3,0-.14-.06-.14-.14-.06-.35-.68-.21-.27-.1-.22,0-.17-.05-.23.07-.19.19-.11.06-.14,0-.29.1-.59.07-.58-.2-.16-.24,0-.13-.17,0-.27v-.24l.48-.83-.1-1.91.07-.29.22-.2.18-.23v-.23l-.31-.57-.61-.44-.3-.35-.17-.32,0-.17.37-.25.16-.18,0-.19-.15-.37,0-.64.14-.49.14-.63v-.18l-.36-.38-.19-.05-.15,0-.37.24-.14,0-.08-.07,0-.1.13-.15-.05-.18.11-.16L724,139l.07-.08-.32-.07,0-.11,0-.11.09,0h.1l0-.08,0-.53,0-.19,0-.37,0-1.43.07-.15v-.11l-.22-.07-.53-.38-.3-.3-.27-.3-.23-.2-.44-.31-.13-.19,0-.2.14-.39.21-.42.11-.6-.07-.15-.29-.28,1,.21,1.48.36,0,.06v.11H725l.43-.13Z"/><path id="TN" class="cls-1" d="M774.68,23.11v.15l-.16,1,0,.37,0,.63V26l.36.63v.28l-.14.32-.67.37-.86.47-.74.45-.81.49-.25.32-.4.25-.33.24-.07.24-.23.44-.31.36-.77.16-.14.11-.36.53-.16.21-.21.44.27,1.13.32,1.15.06.49v.4l-.18.43-.41.62-.3.45-.57.81-.17.2-.4.24-.77.31-.54.28-.27-1.24-.24-1.06-.19-.88-.34-1.54-.29-1.32-.29-1.32-.27-1.2-.26-1.2-.11-.18-.8-.57-.73-.53-.76-.6-.82-.65-.13-.82-.43-1.25-.44-.69-.17-.18-.9-.45-.52-.33-.14-.2-.1-.51-.37-1-.42-.92-.16-.63,0-.78.08-.57.19-.25.88-.71.4-.85.51-.33.43-.24.36-.28.31-.45.24-.49,0-.52.1-.83.16-.59.37-.66-.15-.53-.2-.57,0-1,0-.41-.16-.36-.16-.46V8.31l.15-1,.12-.78.19-1-.06-.28L760.15,5l-.42-.22V4.66l.11-.15.63-.49.33-.73.29-.15.43-.26,0-.28-.1-.31L762.51,2l1.07-.9L764,.83,766.43,0l.32.06.36.12-.1.31-.15.24.21.44.3-.27L767.3.73l0-.24.51,0,.45,0,.49.25,0,1,.66,1-.19.48.54.28.48-.34.24-.5.89-.29.84-.73.46-.08.11.6.22.53-.32.19-.4.55-.77,1.42-.7.41-.53.54-.17.39L770,6.6l.14.8.38.81.45.49.43.15,1,.78,0,.45.14.55.05.66.35.53L772.18,13l-.41.83L771,14.93l-.71.73-1.52,1.1-.37.36-.24.37-.11.39,0,.46.5,1.13.66.67.68.35,1.17-.14,0,.43.08.52.48,0,.32-.08.27-.51.57.35.3,1.05.49.33.06.12-.18.08-.13.12.14.09.47.12.29-.08.48.24Zm-1-8.59-.7.4.14-.35.46-.42.12.1,0,.27Zm-1.45,5.66-.12,0-.22.14-.12,0-.32-.17h-.13l-.16-.11,0-.64.06-.18.8,0,.43.38.07.1,0,.11-.2.21-.16.13Z"/><path id="TZ" class="cls-1" d="M902.53,218.8l-.25.06-.09-.06-.15-.19.26-.17.25-.31.59-.46.2-.31.08-.06,0,.36-.34.78-.28.06-.23.3Zm-1-8.23.34,1,0,.19-.25.11h-.12l-.16-.16-.1-.33-.19.08-.31-.39-.32,0-.28-.47.11-.4-.06-.69.34-.36.19-.6.22.41.05.64.29.74.25.24,0,0Zm1.67-5.76,0,.23-.07.21,0,.69,0,.45-.26.64-.21.22-.19-.07-.15-.1-.12-.17.24-1.16-.13-.85.49.08Zm-41-17.71h14.3l.33.17.36.2,1,.54,1,.54,1,.54,1,.54,1,.54,1,.54,1,.54,1,.54,1,.54,1,.53,1,.54,1,.54,1,.54,1,.54,1,.54,1,.54.46.26.07.11.08.49.05.31,0,.27-.25.46-.08.24v.17l.06.06.22,0,.19.1.06.09.15.35.18.17.4.29.7.51.7.5.69.5.7.5.7.5.69.5.7.51.69.5.34.24.14.07-.09.38-.35.93,0,.39-.14.45-.14.3-.36,1.31-.3.48-.42,1.15-.06.88.22.61.09.57.49.57.39.2.26.26.47.59.26.59.84.29.34.66-.13.46-.38.38-.37.61-.29.8v1.24l.2-.19.44.3.06.91-.46,1.06-.14.49,0,.43.33,1.26.51.65,0,.2-.13.17.86,1.14-.07,1,.32.78.14.67.22.52,0,.35-.27.4.63.1.37.32.17.31h.46l.24.21.36.17.78.52.21.26.08.15.05.1-.53.41-.82.62-.8.62-.78.42-.56.19-.59.11-.56.26-.54.41-.68.2h-.83l-.87.29-.87.54-.51.31-.8-.47-.63-.15h-.72l-.44.06-.16.1-.13.29-.12.48-.47.45-.83.44-.77.16-.7-.11-.47-.18-.25-.25-.36-.12-.48,0-.47.18-.44.34-.7.15-1,0-.51-.17-.08-.28-.42-.34-.77-.38h-.57l-.37.37-.33.23-.31.1h-.27l-.24-.07-.15,0-1.07,0h-1l0-.16-.07-.37-.21-.32-.18-.19-.23-.05h-.12l-.1-.15-.11-.33-.18-.28-.22-.23-.14-.22,0-.2,0-.21.21-.54.07-.38,0-.38-.11-.39-.24-.46,0-.13-.08-.32v-.22l0-.27,0-.36-.21-.78v-.2l-.21-.37-.68-.88,0-.12-1.05-.89-.42-.19-.16.17-.05.15,0,.29,0,.14-.05.06h-.25l-.15,0-.4-.24-.31-.06-.78,0-.27.06-.21,0-.41-.41-.47-.09-.43,0-.71-.46-.17,0-.08,0-.25-.12L871,225l-.67-.24-.55-.27-.24-.25-.52-.1-.44,0-.42-.25-.43,0-.42-.06-.09-.16v-.36l-.15-.09-.31-.09h-.33l-.2.05-.12,0-.28-.21-.26-.26-.09-.42-.39-.28-.45-.21-1.24,0-.2-.06-.29-.22-.35-.35-.28-.4-.24-.55-.12-.33-.13-.41-.31-.61-.43-.86-.33-.71-.36-.76-.14-.56-.28-.61-.46-.76-.23-.3L859,214l-.65-.51-.74-.51-.41-.34-.54-1-.22-.37-.16-.64-.12-.67.05-.27.48-.87,0-.24-.06-.32-.23-.69-.18-.45-.12-.38-.26-.64-.35-.88-.09-.38v-.29l.19-.76.17-.78v-.21l1.43,0,.23-.17.81-.51.91-1,.18-.42.37-.65.36-.32.14-.22.09-.35.12-.3.47-.43.46-.34,0-.13-.06-.1.07-.09.25-.17.49-.16.09-.34v-.38l-.08-.21,0-.25-.08-.13-.32,0-.48-.19-.4-.08-.27-.11-.1-.08,0-.23.08-.25,0-.07.1-.27-.18-.16,0-.08.08-.12.42-.85.09-.12.18,0,.28-.1.27-.05.21,0,.16,0,.14-.11.12-.33.1-.55,0-.45-.21-.35-.06-.53.1-.71-.07-.59-.23-.47-.23-.28-.36-.14-.56-.72-.17-.35,0-.21.15-.07,0,0,.36,0,.34-.09.31-.19.3-.06h.07Z"/><path id="UG" class="cls-1" d="M876.2,187.11h-14l-.07,0-.3.06-.32.2-.33.08-.36,0,0,0h-.44l-.24.05-.18.17-.18.3-.33.34-.26.31-.22.21-.5.36-.28.1-.13,0-.08-.06-.16-.46-.1-.07-1,.23h-.15l0-.14-.08-1.07V187l.12-.41.08-.47v-.41l.18-.71-.07-.42.23-1.49.06-.24.09-.72.15-.22.13-.09.16-.44.32-.7.22-.36,0-.79,0-.54,0-.12.48-.2.61-.5.26-.59.37-.37.71-.24h0l2.1-2,1-1.08.43-.56v-.2l.09-.26-.17-.2-.21-.19-.07-.17-.17-.09h-.25l-.17-.13-.19-.24-.19-.15h-.6l-.46-.25v-.34l.18-.67.35-.76,0-.22,0-.18-.09-.15-.15-.15-.15-.19.11-.55.22-.54.18-.27.18-.3,0-.25-.26-.12.14-.24.27-.41.54-.41.47-.28h.32l.61.22.56.26h.3l.38-.11.76-.46.19.15.22.28.24.46.49.21.23.14.16,0,.1,0,.18-.36.22-.2.41-.25.9-.2.64-.06.28,0,.45-.12.73-.37.71.48.77.09h.75l.23-.15.13-.11.78-.78,1.06-1.07.71,1.5.24.09,0,.13-.06.13.46.36.57.19.21.18v.2l-.19.88,0,.25.18.88.34.2.3.88.61.38.09.11.14.43.18.47.15.1.09,0,.18.5-.11.28.14.85.23.76.06.91v.64l-.05.35-.11.2-.2.19-.21.31-.19.32-.12.17.1.49,0,.12,0,.07-.27.07-.36.13-.21.13-.3.25-.24.27-.33.79-.53.62-.09.2-.51.37-.22.45-.14.55-.2.4-.43.55-.09.86v1.73l-.11,2Z"/><path id="YT" class="cls-1" d="M927.32,241.82l-.29,0-.13-.13-.08-.29.08-.28,0-.23-.23-.39.23-.22.19.26.11,0,.29.18-.08.33,0,.11-.14.34Z"/><path id="ZA" class="cls-1" d="M864.35,286.68l0,.26,0,.12.22.68.32,1,.22.94.29,1.29v.72l.08.28.26.35.33.6.11.34.1.26.35.48.26.73.23,1,.19.46.08.23.08.42v4l0,.48,0,1.37-.29.72,0,.56.09.36-.12.06-.23.06-1-.57-1-.61-.15,0-.21.06-.58.44-.54.7-.25.59-.4.61-.64,1-.07.21v.81l0,.76.06.11.35,0,.25.63.57,1,.95.64.89.29,1.23.08,1,0,0-.68.09-1.08.13-.73.13,0,.26.07.14.07.4,0,.69.15.57,0h.5l.85,0h.5l-.17,1.18-.65,1.84-.22.85-.55,3-.73,1.54-.4.64-1.17,1.13-.33.22-.29.15-.51.13-2,2.29-.75,1.11-.67,1.61-.66.9-1,1.9-.86,1.48-.84,1.35-1.43,1.86-.64.54-.44.25-1.14,1.09-1.61,1.75-1.23,1.56L851.49,339l-1.07.78-1.6,1.54-.45.23L846.56,343l-1.3.87-2.1,1-.83.28-2-.26-.83.14-.69.61-.07.89-.29.13-.44,0-1.39-.37-.76.07-.44.47-.35.6-1.05,0-1.87-.62-2.2-.37-.51-.05-1.07.46-.37.07-1.55-.1-.86-.29h-.83l-.63.24-.76.08-2.07,1.67h-1.07l-.92.19h-.46l-.86-.24-.32,0-.48.1-.49.3-1.11.12-.43.26-1.88,1.52-.43-.06-.34-.1-1,0-1.1-.81-.42.05.11-.24,0-.43-.23-.31-.16-.14-.43,0-.23-.37-.66,0-.23.09-.32,0,0-.37,0-.23v-.36l-.08-.44-.26-.14-.2-.06-.47,0-.32,0-.15.13-.17.32v1l-.23-.28-.26-.59-.09-.63.1-.73.5-.29,0-.49-.11-.44-.56-1.1-.21-.5-.48-.35-.37-.82-.37-.29-.16-.58-.36-.46-.12-.72.2-.41.31-.23.33.36.4-.14.57-.53.34-.79,0-1.26-.09-.79-.45-2-.21-.47-1-1.44-1.19-1.93-1.5-3-.71-1.81L799.37,322l-1-2L797.24,318l-.15-.12.18-.23.63-.44.28-.12.16.06.15-.12.14-.3,0-.28.07-.39.14-.24.16-.46.26-.3.56-.2.42.26.18.26.07.34.19.17.3,0,.21.21.12.44,0,.31-.17.19,0,.26.22.31.09.31.14.39.77.24.37.13.65,0,.61.18.57.31.94.08,1.32-.17,1.08.08.85.3.61.06.38-.2.17-.27-.05-.37.19-.23.42-.09.35-.28.25-.45.6-.36.94-.28h.46V298.42l.22.15,1.43,1.11.39.59.19.37L816,302l.46,1.22.37.92,0,.42.06.41,0,.2,0,.23-.27.5-.27.38-.32.53,0,.69.1.82.2.41.24.13.6-.2.38.06.53.16,1.74-.1.21.05.65.06.22-.07.2-.17.23-.49.2-.16.37-.09.44-.13.36-.28.58-1,1.14-.86.36-.21.22-.23.19-.31.4-1.07.31-.9.1-.42.27-.69.33-.44.32-.23.16-.06.42-.12.53-.11.56.12.6.27.67.45.7.55.31.29.35.12.61.05h.4l.62.55.32,0,.7.17.88.17.54,0,.59-.3h.43l.54,0,.61-.08.44-.12.33-.26.3-.29.34-.84.2-.68.3-.78.38-1.06.13-.74.14-.2.54-.22.45-.16,1.2-.29.25-.15.23-.35.52-.58.65-.49.34-.28.61-2.37.08-.29.44-.63.28-.26h.18L846,292l.33-.33.39-.2.45-.07.29-.22.13-.35.24-.17h.33l.19-.12,0-.23.2-.2L849,290l.19-.2,0-.23.42-.56.82-.88.78-.49.73-.1.69-.19.66-.27.48-.42.3-.57.53-.32,1.07-.09h.05l1.3-.22,1.08.18,1.31.52,1.22.19,1.14-.15.93,0,.71.09.56.18.41.28Zm-11.56,38.95.74-.33.34-.21.24-.16.31-.26.11-.61.09-.52.24-.26.25-.17.2-.27.25-.65.17-.64,0-.26-.09-.27-.16-.28-.16-.38-.19-.06-.37-.22-.54-.43-.47-.38-.44-.54-.19-.09-.42-.37-.19-.21-.13-.25-.12-.08-.19.06-.51.11-1.08.44-.67.41-.57.48-.58.19-.43.16-.34.55-.32.52-.29.47-.16.21-.15.13-.15.3-.31.5-.28.33-.4.18-.5.24-.18.13,0,.2.18.47.17.45.29.53.21.39.33.47.19.28,0,.47.06.16.11.2.1.05.1.07.27.13.07.09.19.16.19.29.35.4.39.3.67.13.53.09.17-.06.18-.24.15-.31.05-.4.16-.21.64-1,.34-.38.22,0,.27-.08.35,0,.26,0h.06l.41-.13Z"/><path id="ZM" class="cls-1" d="M871.75,225.35v.12l.13.23.13.16v.25l.06.22.19.06h.16l.14-.16h.2l.22.1.07.26.17.35.28.24.18.23-.06.43-.12.38.37.38.49.36.13.16,0,.54.07.19.33.44.16.3v.17l-.88.89-.28.09-.27.05-.23.18-.15.19.06.1.09.3.2.48.19.34-.16.42-.34.71-.17.07,0,.54.1.2.18.15.07.37v.51l0,.4-.22,1,.4.91.14.1h.55l.09.08-.13.26-.24.26-.15.14-.7.31-1,.34-.21.33-.14.48.12.28.13.16,0,.42-.09.44,0,.35,0,.3-.13.15-.18.47-.21.46-.17.22-.26.22-.39.18v.1l.45.21.12.15,0,.1-.09.1-.1.14.21.14.26.12.24.31.21.43.06.16.05.06h.08l.15-.06.28-.24.2-.08.24.34-1,.33-.51.17-1.46.5-1.27.44-.33.08-.66.22-.32.13-1.15.38-.48.19-.39.19-1,.28-.89.27-1,.27-1.1.31-.61.22-.42.2-1,.39,0,.09v.26l.12.55.25.49.2.29.13.73.08.65h-3l-1.1.25-.91.38-1.07.58-.35.23-.27.18-.18.23-.08.5v.77l-.11.56-.33.51h0l-1.63.62-1.07.5-1.05.6-.8.78-.54.95-.9,1.19-.92,1-1,1.09-1.09.4-.92-.09-1.11-.45L841,265l-.65.28-.6-.09-.55-.45-.46-.16-.38.12-.47,0-.88-.24-.75-.76-.41-.31-.32-.12-.9-.12-2.08-.18-.21,0-.87.15-1.07.19-.93.18-1,.2-.9-.79-1-.89-1.06-1-.79-.78-.4-.45-.7-.6-.5-.29-.2-.14-.5-1.58-.27-1.45V241.93h8.7l.3,0,0-.14-.39-.74,0-.26.11-.49.16-.43.21-.56,0-.34-.17-1.08,0-.6,0-.62,0-.59-.06-.41.08-.23.12-.32.07-.36.08-.16,0-.14-.07-.27-.07-.61-.1-.84-.1-.6.17,0,.34.06.17.3.09.32.23,0,.61.19.2.27.14.58-.08.29-.19.24.19.21.4.15.24-.05.68-.39.27-.07.35-.08.32-.1.9-.18.5-.08.27-.14h.2l.14.11-.13.41,0,.37.17.69.13.32.29.23.21.12.24.25.48,0,1.07.35.33.16.45.16.32.06,1.1.13.41.08.75.11.61,0,.43-.05.3-.1.18-.11.08-.1.13-.34.22-.74.09-.23.23-.1.28-.07.17.12.19.83.84.74.29.63.21.54.18.14.32.18.51.07.46,0,1,.39.76.3.55.22.25.17.17.27.11.22.16.55.18.44.29.08.27,0,.25.3.2.26.39.64.28.44.1.43.32.29.44.12.41,0,.24-.13.58-.22.45-.26.33-.09.2.06.14.18.08.34,0,.19.32.19.24-.07.09-.22V238l-.2,0-.26.16-.6,0-.24.12-.07.18,0,.23,0,.32-.09.15-.26.06-.38-.13-.69-.15-.58-.1-.41-.43-.56-.63-.37-.32-.88-.67-.15-.13-.27-.31-.23-.52-.11-.35-.11-.26-.11-.39.21-.59.3-1.13.21-.82.12-.6.43-.61,0-.55-.17-.7,0-.39,0-1,0-.83v-.4l-.12-.7-.28-.77-.64-1.08v-.23l.38-.26.6-.44.29-.27.36-.37L853,223l.35-.48.22-.39.07-.51-.16-.48.33-.09,1.11-.17,1.21-.19,1.28-.2,1.29-.2,1.26-.19,1.13-.17.79-.12.11.33.25.54.27.41.35.35.29.22.2.06,1.24,0,.45.21.39.27.1.43.25.26.28.21.12,0,.2-.06h.33l.31.09.15.09v.36l.1.15.42.07.42,0,.42.24.44,0,.52.1.25.25.54.27.67.24.49.26Z"/><path id="ZW" class="cls-1" d="M864.35,286.68l-.41-.28-.56-.18-.72-.08-.92,0-1.14.15-1.22-.18-1.31-.53-1.09-.18-1.29.23h-.06l-.22-.18-.36-.38-.59-.07-.16-.08-.13-.15-.09-.18,0-.2.1-.63-.06-.07-.15-.07-.33-.08-.77-.28-1-.28-1.59-.3-.62-.08-.14-.09-.18-.23-.3-.72-.29-.47-.68-.74-.11-.22,0-.58,0-.47.08-.4,0-.37v-.46l0-.31-.09-.13-.24-.1-.71,0-.85,0,0-.47-.08-.72-.16-.42-.2-.21-.39-.23-.79-.31-1.08-.47-.93-.69-1.06-.86-.33-.15-.39-.81-.59-1.38,0-.46-.09-.23-.58-.68-.13-.35-.1-.35-.92-1-.31-.44-.24-.55-.24-.44-.2-.18-.26-.3-.18-.35-.09-.25.07-.35.09-.23.88.24.47,0,.38-.12.46.17.55.44.6.09L841,265l.88.08,1.11.45.92.09,1.09-.4,1-1.09.92-1,.9-1.19.54-.95.8-.78,1.05-.6,1.07-.5,1.63-.62h0l.33-.51.11-.56v-.77l.08-.5.18-.23.27-.18.35-.23,1.07-.58.91-.38,1.1-.24h3V255l0,.84.13.08h.87l1.4.06,1.35.06.86.61.29.13.89.16,1.14,1,1.38.09,1,.32.83.35.48.42.31.09.42,0,.2,0,0,.3-.28.51,0,.73.39,1,0,.89-.12,1.55v1.51l0,.55.06.35.08.2v.22l-.23.64-.19.67v.27l-.07.19-.14.16-.6.31-.1.19v.35l.07.29.23.11.27.17.11.21v.23l-.09.43-.24.71.24.81.27.53.38.61.15.38v.27l0,.27-.56,1.12-.4.69-.49.75L870,278l-.17.23-.07.25,0,.56,0,.59-.56.91.34.78-.07.07-.19.11-.8.88-.81.89-.59.65-.67.74-.76.83-.64.72Z"/></g></g></svg>